<svg width="29" height="29" viewBox="0 0 29 29" fill="none" xmlns="http://www.w3.org/2000/svg">
<path fill-rule="evenodd" clip-rule="evenodd" d="M0 14.3333C0 22.2494 6.41725 28.6667 14.3333 28.6667C22.2494 28.6667 28.6667 22.2494 28.6667 14.3333C28.6667 6.41725 22.2494 0 14.3333 0C6.41725 0 0 6.41725 0 14.3333ZM13.9092 13.0363C14.2386 13.0806 14.6942 13.1992 15.0809 13.5858C15.4675 13.9725 15.5861 14.4281 15.6304 14.7575C15.6671 15.0304 15.6669 15.3477 15.6667 15.6142L15.6667 21C15.6667 21.7364 15.0697 22.3334 14.3333 22.3334C13.597 22.3334 13 21.7364 13 21L13 15.6667C12.2636 15.6667 11.6667 15.0698 11.6667 14.3334C11.6667 13.597 12.2636 13 13 13L13.0525 13C13.319 12.9999 13.6363 12.9997 13.9092 13.0363ZM14.3273 7.66667C13.5942 7.66667 12.9999 8.26362 12.9999 9C12.9999 9.73638 13.5942 10.3333 14.3273 10.3333H14.3392C15.0723 10.3333 15.6665 9.73638 15.6665 9C15.6665 8.26362 15.0723 7.66667 14.3392 7.66667H14.3273Z" fill="#2EAD00"/>
</svg>
