<svg width="20" height="22" viewBox="0 0 20 22" fill="none" xmlns="http://www.w3.org/2000/svg">
<path d="M5.75 5C5.33579 5 5 5.33579 5 5.75C5 6.16421 5.33579 6.5 5.75 6.5L13.75 6.5C14.1642 6.5 14.5 6.16421 14.5 5.75C14.5 5.33579 14.1642 5 13.75 5L5.75 5Z" fill="#777777"/>
<path d="M5 10.75C5 10.3358 5.33579 10 5.75 10L13.75 10C14.1642 10 14.5 10.3358 14.5 10.75C14.5 11.1642 14.1642 11.5 13.75 11.5L5.75 11.5C5.33579 11.5 5 11.1642 5 10.75Z" fill="#777777"/>
<path d="M5.75 15C5.33579 15 5 15.3358 5 15.75C5 16.1642 5.33579 16.5 5.75 16.5L9.75 16.5C10.1642 16.5 10.5 16.1642 10.5 15.75C10.5 15.3358 10.1642 15 9.75 15H5.75Z" fill="#777777"/>
<path fill-rule="evenodd" clip-rule="evenodd" d="M10.3333 2.29532e-07L9.16672 2.29532e-07C7.21585 -1.24091e-05 5.67941 -2.25455e-05 4.47885 0.152421C3.24987 0.308473 2.25965 0.635751 1.47552 1.37631C0.685345 2.12259 0.330604 3.07468 0.162549 4.25521C-3.20375e-05 5.39729 -1.76822e-05 6.8554 3.91182e-07 8.69067L3.91182e-07 12.8093C-1.80399e-05 14.6446 -3.26782e-05 16.1027 0.162548 17.2448C0.330603 18.4253 0.685344 19.3774 1.47552 20.1237C2.25965 20.8642 3.24987 21.1915 4.47885 21.3476C5.67941 21.5 7.21586 21.5 9.16675 21.5H10.3333C12.2842 21.5 13.8206 21.5 15.0212 21.3476C16.2501 21.1915 17.2404 20.8643 18.0245 20.1237C18.8147 19.3774 19.1694 18.4253 19.3375 17.2448C19.5 16.1027 19.5 14.6446 19.5 12.8093V8.69074C19.5 6.85547 19.5 5.39729 19.3375 4.25521C19.1694 3.07468 18.8147 2.12259 18.0245 1.37631C17.2404 0.635752 16.2501 0.308474 15.0212 0.152422C13.8206 -2.20388e-05 12.2842 -1.22304e-05 10.3333 2.29532e-07ZM2.50546 2.46683C2.96182 2.03582 3.59011 1.77731 4.6678 1.64047C5.76287 1.50142 7.204 1.5 9.22059 1.5L10.2794 1.5C12.296 1.5 13.7371 1.50142 14.8322 1.64047C15.9099 1.77731 16.5382 2.03582 16.9945 2.46683C17.4449 2.89213 17.7104 3.46864 17.8524 4.46661C17.9982 5.49077 18 6.84197 18 8.75V12.75C18 14.658 17.9982 16.0092 17.8524 17.0334C17.7104 18.0314 17.4449 18.6079 16.9945 19.0332C16.5382 19.4642 15.9099 19.7227 14.8322 19.8595C13.7371 19.9986 12.296 20 10.2794 20H9.22059C7.204 20 5.76287 19.9986 4.6678 19.8595C3.59011 19.7227 2.96182 19.4642 2.50546 19.0332C2.05515 18.6079 1.78964 18.0314 1.64758 17.0334C1.50178 16.0092 1.5 14.658 1.5 12.75L1.5 8.75C1.5 6.84197 1.50178 5.49077 1.64758 4.46661C1.78964 3.46864 2.05515 2.89213 2.50546 2.46683Z" fill="#777777"/>
</svg>
