<svg width="22" height="22" viewBox="0 0 22 22" fill="none" xmlns="http://www.w3.org/2000/svg">
<path d="M0 9.35996C0 4.15996 4.397 0 9.75 0C14.463 0 18.435 3.22 19.317 7.55C19.415 8.02 19.464 8.25998 19.322 8.37998C19.1802 8.48984 18.9316 8.38024 18.4339 8.16081L18.432 8.15996C17.454 7.73996 16.374 7.5 15.25 7.5C11.067 7.5 7.5 10.77 7.5 15.01C7.5 16.13 7.74598 17.17 8.18398 18.11C8.28798 18.33 8.11102 18.59 7.87002 18.55C7.80534 18.5379 7.74806 18.5267 7.69688 18.5168C7.57873 18.4937 7.4931 18.477 7.42402 18.47C7.39902 18.46 7.37701 18.46 7.35801 18.47H7.33198C7.31997 18.475 7.30647 18.4825 7.28846 18.4925C7.27047 18.5025 7.24799 18.515 7.21802 18.53C7.16991 18.5509 7.11414 18.58 7.04814 18.6145C6.98792 18.646 6.91919 18.6819 6.83999 18.72C5.53599 19.42 4.01602 19.66 2.54902 19.39C2.28902 19.34 2.07298 19.16 1.98198 18.91C1.89098 18.66 1.937 18.39 2.104 18.18C2.517 17.67 2.801 17.06 2.927 16.4C2.956 16.25 2.89299 16.02 2.66299 15.79C1.01599 14.12 0 11.85 0 9.35996Z" fill="white"/>
<path d="M15.25 9C11.83 9 9 11.66 9 15.01C9 18.36 11.83 21.02 15.25 21.02C15.653 21.02 16.056 20.99 16.452 20.91C16.5075 20.8988 16.5526 20.8907 16.59 20.884C16.6193 20.8788 16.6439 20.8744 16.665 20.87C16.716 20.9 16.786 20.94 16.892 20.99C17.745 21.45 18.741 21.61 19.704 21.43C19.964 21.38 20.18 21.2 20.271 20.95C20.362 20.7 20.316 20.42 20.149 20.22C19.929 19.95 19.776 19.62 19.707 19.27C19.7077 19.263 19.7084 19.2609 19.7098 19.2568C19.7098 19.2568 19.7111 19.253 19.712 19.25C19.722 19.23 19.746 19.19 19.789 19.14C20.845 18.07 21.5 16.62 21.5 15.01C21.5 11.66 18.67 9 15.25 9Z" fill="white"/>
</svg>
