<svg width="29" height="29" viewBox="0 0 29 29" fill="none" xmlns="http://www.w3.org/2000/svg">
<path d="M25.0303 0.282919C24.6343 -0.102017 24.0012 -0.0930219 23.6163 0.303011C23.2313 0.699044 23.2403 1.33215 23.6363 1.71708C23.8518 1.9265 24.1946 2.19614 24.5209 2.45244L24.5969 2.51208C24.9245 2.76928 25.2749 3.04436 25.6064 3.32525L25.6159 3.33333L17 3.33333C16.4477 3.33333 16 3.78105 16 4.33333C16 4.88562 16.4477 5.33333 17 5.33333L25.6159 5.33333L25.6064 5.34141C25.2749 5.62231 24.9245 5.89735 24.5969 6.15455L24.5209 6.21422C24.1946 6.47053 23.8518 6.74017 23.6363 6.94959C23.2403 7.33452 23.2313 7.96762 23.6163 8.36366C24.0012 8.75969 24.6343 8.76869 25.0303 8.38375C25.152 8.26548 25.3944 8.07132 25.7563 7.78706L25.8362 7.72431C26.1591 7.47089 26.5379 7.17358 26.8993 6.86729C27.2867 6.53902 27.6891 6.17158 28.002 5.80428C28.1587 5.62022 28.3133 5.41276 28.4328 5.18957C28.548 4.97432 28.6667 4.67771 28.6667 4.33333C28.6667 3.98895 28.548 3.69235 28.4328 3.4771C28.3133 3.25391 28.1587 3.04645 28.002 2.86238C27.6891 2.49509 27.2867 2.12765 26.8993 1.79938C26.5379 1.4931 26.1592 1.19583 25.8363 0.942422L25.7563 0.879609C25.3944 0.595353 25.152 0.401188 25.0303 0.282919Z" fill="#2EAD00"/>
<path d="M13.9996 2.30342C14.0161 2.85546 13.582 3.31637 13.0299 3.33289C12.5173 3.34824 12.0081 3.37265 11.5056 3.40608C6.44034 3.74305 2.38554 7.84226 2.05157 13.0139C1.98281 14.0788 1.98281 15.1829 2.05157 16.2478C2.16881 18.0632 2.9781 19.8007 4.00307 21.341C4.01837 21.364 4.03271 21.3876 4.04606 21.4118C4.9368 23.0258 4.28376 24.8663 3.61818 26.1286C3.5088 26.336 3.419 26.5065 3.34467 26.6551C3.44545 26.6586 3.55892 26.6614 3.69025 26.6646C5.11503 26.6993 6.01837 26.305 6.73777 25.7741L6.76131 25.7567C6.99287 25.5858 7.20265 25.4309 7.37628 25.3185C7.52703 25.2209 7.80297 25.0486 8.13843 25.0073C8.48978 24.964 8.83053 25.0836 9.0005 25.1434C9.21805 25.2199 9.49446 25.3339 9.81391 25.4655L9.83975 25.4762C10.3456 25.6847 10.9511 25.8187 11.5056 25.8556C13.3603 25.979 15.3026 25.9793 17.1611 25.8556C22.2263 25.5187 26.2811 21.4194 26.6151 16.2478C26.6839 15.1829 26.6839 14.0788 26.6151 13.0139C26.5726 12.3551 26.4697 11.7142 26.3122 11.0965C26.1758 10.5613 26.499 10.0169 27.0342 9.88046C27.5694 9.74404 28.1138 10.0673 28.2502 10.6025C28.438 11.3392 28.5604 12.1023 28.6109 12.885C28.6852 14.0357 28.6852 15.226 28.6109 16.3767C28.2138 22.5269 23.3833 27.4461 17.2939 27.8512C15.3468 27.9807 13.3159 27.9805 11.3728 27.8512C10.6195 27.8011 9.7995 27.6228 9.0776 27.3253C8.76036 27.1945 8.54495 27.106 8.3873 27.0482C8.2789 27.1227 8.13494 27.2286 7.92537 27.3833C6.86879 28.163 5.53474 28.7101 3.64155 28.664L3.58058 28.6625C3.21541 28.6538 2.82607 28.6445 2.50855 28.583C2.12596 28.5089 1.65297 28.3238 1.35704 27.8188C1.03509 27.2695 1.16413 26.714 1.28909 26.364C1.40704 26.0336 1.6115 25.646 1.82045 25.25L1.84905 25.1958C2.47084 24.0166 2.64439 23.0523 2.31157 22.4091C1.20181 20.7326 0.203606 18.6666 0.0557318 16.3767C-0.0185773 15.226 -0.0185773 14.0357 0.0557318 12.885C0.452887 6.73478 5.28335 1.8156 11.3728 1.41049C11.9002 1.37541 12.4338 1.34984 12.9701 1.33379C13.5221 1.31726 13.983 1.75138 13.9996 2.30342Z" fill="#2EAD00"/>
<path d="M8.66667 18.3333C8.66667 18.8856 9.11438 19.3333 9.66667 19.3333H19C19.5523 19.3333 20 18.8856 20 18.3333C20 17.781 19.5523 17.3333 19 17.3333H9.66667C9.11438 17.3333 8.66667 17.781 8.66667 18.3333Z" fill="#2EAD00"/>
<path d="M8.66667 11.6667C8.66667 12.219 9.11438 12.6667 9.66667 12.6667L14.3333 12.6667C14.8856 12.6667 15.3333 12.219 15.3333 11.6667C15.3333 11.1144 14.8856 10.6667 14.3333 10.6667L9.66667 10.6667C9.11438 10.6667 8.66667 11.1144 8.66667 11.6667Z" fill="#2EAD00"/>
</svg>
