<svg width="20" height="22" viewBox="0 0 20 22" fill="none" xmlns="http://www.w3.org/2000/svg">
<path d="M6.75 9.73486C6.33579 9.73486 6 10.0707 6 10.4849C6 10.8991 6.33579 11.2349 6.75 11.2349L12.75 11.2349C13.1642 11.2349 13.5 10.8991 13.5 10.4849C13.5 10.0707 13.1642 9.73486 12.75 9.73486L6.75 9.73486Z" fill="#EC2D30"/>
<path d="M8.25 13.6543C7.83579 13.6543 7.5 13.9901 7.5 14.4043C7.5 14.8185 7.83579 15.1543 8.25 15.1543L11.25 15.1543C11.6642 15.1543 12 14.8185 12 14.4043C12 13.9901 11.6642 13.6543 11.25 13.6543L8.25 13.6543Z" fill="#EC2D30"/>
<path fill-rule="evenodd" clip-rule="evenodd" d="M9.81603 5.75077e-07L9.75198 5.75077e-07C9.24671 -1.33554e-05 8.81808 -2.51718e-05 8.46239 0.0323555C8.08495 0.0667173 7.73336 0.14114 7.39338 0.321917C7.2592 0.393262 7.13117 0.475607 7.01059 0.568108C6.70509 0.802482 6.49154 1.09153 6.30372 1.42073C6.12672 1.73095 5.94896 2.12096 5.73939 2.58074L5.32036 3.5L0.75 3.5C0.335786 3.5 0 3.83579 0 4.25C0 4.66422 0.335786 5 0.75 5H1.54391L2.10831 14.3491C2.18374 15.5987 2.2436 16.5904 2.36813 17.3825C2.49585 18.1948 2.70119 18.8714 3.11308 19.4633C3.48989 20.0047 3.97534 20.4617 4.53852 20.8052C5.15414 21.1807 5.84183 21.3449 6.66038 21.4234C7.45856 21.5 8.45196 21.5 9.70383 21.5H9.78151C11.0317 21.5 12.0239 21.5 12.8212 21.4236C13.6388 21.3452 14.3257 21.1813 14.9409 20.8065C15.5037 20.4637 15.989 20.0074 16.366 19.4668C16.778 18.876 16.9839 18.2004 17.1126 17.3892C17.2381 16.5982 17.2993 15.6079 17.3765 14.36L17.9551 5H18.75C19.1642 5 19.5 4.66422 19.5 4.25C19.5 3.83579 19.1642 3.5 18.75 3.5L14.2754 3.5L13.7839 2.48608C13.569 2.04264 13.3865 1.66616 13.2069 1.36688C13.0162 1.04917 12.8018 0.770745 12.4999 0.545608C12.3806 0.45664 12.2543 0.377499 12.1222 0.308966C11.788 0.135548 11.4439 0.0640815 11.0748 0.0310714C10.7272 -2.44081e-05 10.3088 -1.29382e-05 9.81603 5.75077e-07ZM12.6085 3.5L6.96885 3.5L7.09086 3.23234C7.31746 2.73523 7.46741 2.40798 7.60658 2.16407C7.73868 1.93253 7.83347 1.82739 7.92362 1.75823C7.97842 1.71619 8.03662 1.67876 8.09761 1.64633C8.19793 1.59298 8.33291 1.55035 8.59839 1.52618C8.87805 1.50072 9.23802 1.5 9.78434 1.5C10.3173 1.5 10.6682 1.50069 10.9412 1.52511C11.2002 1.54827 11.3326 1.58916 11.4314 1.64044C11.4915 1.67159 11.5489 1.70756 11.6031 1.74801C11.6924 1.81458 11.7869 1.91588 11.9208 2.13884C12.0618 2.37382 12.2155 2.68926 12.448 3.16888L12.6085 3.5ZM3.60324 14.22L3.04664 5L16.4522 5L15.8817 14.2288C15.8016 15.524 15.7441 16.4425 15.6312 17.1542C15.5202 17.8539 15.3656 18.279 15.1355 18.6089C14.8776 18.9788 14.5456 19.2909 14.1605 19.5255C13.8171 19.7347 13.3832 19.8628 12.678 19.9304C11.9607 19.9992 11.0404 20 9.74274 20C8.44334 20 7.52183 19.9992 6.80363 19.9303C6.09755 19.8626 5.66322 19.7342 5.31959 19.5246C4.93426 19.2896 4.6021 18.9769 4.34429 18.6064C4.11437 18.2761 3.9601 17.8502 3.84993 17.1495C3.73788 16.4368 3.68155 15.517 3.60324 14.22Z" fill="#EC2D30"/>
</svg>
