<svg width="108" height="121" viewBox="0 0 108 121" fill="none" xmlns="http://www.w3.org/2000/svg">
<g opacity="0.1">
<path fill-rule="evenodd" clip-rule="evenodd" d="M25.5 8.59375C-15.3173 8.59375 -48.4062 41.6827 -48.4062 82.5C-48.4062 123.317 -15.3173 156.406 25.5 156.406C66.3173 156.406 99.4063 123.317 99.4063 82.5C99.4062 41.6827 66.3173 8.59375 25.5 8.59375ZM17.067 19.4605C19.8261 19.0949 22.641 18.9062 25.5 18.9062C28.3895 18.9062 31.2339 19.099 34.0212 19.4722L25.5991 25.4636L17.067 19.4605ZM3.77141 22.7151C-8.72998 27.2597 -19.4027 35.6138 -26.8431 46.3738L-17.1975 68.2291L3.36302 73.3693C3.8012 72.8231 4.3113 72.3234 4.89037 71.8851L20.345 60.1876L20.345 34.3761L3.77141 22.7151ZM30.6575 34.5209L30.6575 60.1907L44.5529 70.7081L67.7266 62.018L75.1305 42.7348C67.9099 33.7344 58.2916 26.7402 47.2446 22.7209L30.6575 34.5209ZM82.0727 53.4243L78.496 62.7396L87.7846 69.6001C86.6084 63.8914 84.6671 58.4622 82.0727 53.4243ZM89.0877 83.3829L72.5991 71.2046L49.5061 79.8644C49.4441 80.4189 49.3294 80.971 49.1603 81.5132L43.3823 100.039C43.437 100.113 43.4901 100.188 43.5415 100.265L57.2492 120.826L73.8351 123.828C83.1704 112.921 88.8777 98.8157 89.0877 83.3829ZM64.6208 132.641L53.7685 130.676L50.0837 141.168C55.3229 138.97 60.2055 136.09 64.6208 132.641ZM37.8439 144.897L45.4957 123.111C45.593 122.834 45.7121 122.569 45.8505 122.319L35.343 106.558C35.2527 106.561 35.1621 106.562 35.0711 106.562H15.9273C14.9761 106.562 14.0632 106.406 13.2111 106.117L3.50966 118.243L3.27613 142.103C10.1942 144.683 17.6824 146.094 25.5 146.094C29.7235 146.094 33.8507 145.682 37.8439 144.897ZM-6.98868 137.18L-6.85218 123.233L-23.1913 123.409C-18.6113 128.854 -13.1346 133.52 -6.98868 137.18ZM-29.5173 114.415L-29.5307 113.164L-5.42581 112.905L6.84487 97.5664L2.55 83.7959L-20.9304 77.9258L-37.6255 90.2566C-36.5651 98.9767 -33.7397 107.152 -29.5173 114.415ZM-37.9114 77.6474L-27.656 70.0729L-33.0962 57.7463C-35.7159 63.9399 -37.3823 70.6349 -37.9114 77.6474ZM11.9944 79.4416L25.4992 69.2198L39.004 79.4416L33.7616 96.25H17.2367L11.9944 79.4416Z" fill="#2EAD00"/>
</g>
</svg>
