<svg width="29" height="24" viewBox="0 0 29 24" fill="none" xmlns="http://www.w3.org/2000/svg">
<path d="M13.3333 0.533341C13.3333 0.281925 13.3333 0.156217 13.2552 0.0781121C13.1771 8.13107e-06 13.0515 8.15266e-06 12.8 8.15266e-06L6.25623 1.99574e-06C5.0651 -4.7862e-05 4.05773 -9.00229e-05 3.25541 0.123188C2.39186 0.255877 1.62766 0.54936 1.02849 1.23413C0.446119 1.89969 0.212553 2.71576 0.104489 3.63435C0.0236041 4.32191 0.00532273 5.15185 0.0012014 6.13292C0.000146729 6.38408 -0.000379945 6.50967 0.077792 6.58817C0.155964 6.66667 0.281888 6.66667 0.533736 6.66667L4.33334 6.66667C5.62201 6.66667 6.66667 7.71134 6.66667 9L6.66667 14.3333C6.66667 15.622 5.62201 16.6667 4.33334 16.6667H0.533736C0.281888 16.6667 0.155964 16.6667 0.077792 16.7452C-0.000379945 16.8237 0.000146729 16.9492 0.0012014 17.2004C0.00532273 18.1815 0.0236041 19.0115 0.104489 19.6991C0.212553 20.6176 0.446119 21.4336 1.02849 22.0992C1.62766 22.784 2.39186 23.0775 3.25541 23.2101C4.05777 23.3335 5.06501 23.3335 6.25621 23.3333L12.8 23.3333C13.0515 23.3333 13.1771 23.3333 13.2552 23.2552C13.3333 23.1772 13.3333 23.0515 13.3333 22.8L13.3333 15.5987C13.3333 15.4112 13.3333 15.3175 13.288 15.25C13.2425 15.1825 13.1457 15.1431 12.952 15.0643C11.6116 14.5187 10.6667 13.2031 10.6667 11.6667C10.6667 10.1303 11.6116 8.81464 12.952 8.26912C13.1457 8.19028 13.2425 8.15086 13.288 8.08336C13.3333 8.01587 13.3333 7.92212 13.3333 7.73461L13.3333 0.533341Z" fill="#2EAD00"/>
<path d="M0 14.1333C0 14.3848 0 14.5104 0.0781053 14.5885C0.156209 14.6667 0.281917 14.6667 0.533333 14.6667L4.33333 14.6667C4.51743 14.6667 4.66667 14.5175 4.66667 14.3333L4.66667 9C4.66667 8.81591 4.51743 8.66667 4.33333 8.66667L0.533333 8.66667C0.281917 8.66667 0.156209 8.66667 0.0781053 8.74478C0 8.82288 0 8.94859 0 9.2L0 14.1333Z" fill="#2EAD00"/>
<path d="M15.4115 23.2552C15.3333 23.1772 15.3333 23.0515 15.3333 22.8L15.3333 15.5987C15.3333 15.4112 15.3333 15.3175 15.3787 15.25C15.4241 15.1825 15.5209 15.1431 15.7147 15.0643C17.0551 14.5187 18 13.2031 18 11.6667C18 10.1303 17.0551 8.81464 15.7147 8.26912C15.5209 8.19028 15.4241 8.15086 15.3787 8.08336C15.3333 8.01587 15.3333 7.92212 15.3333 7.73461L15.3333 0.53334C15.3333 0.281924 15.3333 0.156216 15.4115 0.0781121C15.4896 6.79493e-06 15.6152 6.80162e-06 15.8667 6.80162e-06L22.4105 1.99574e-06C23.6017 -4.7862e-05 24.6089 -9.0013e-05 25.4112 0.123188C26.2748 0.255877 27.0391 0.54936 27.6381 1.23413C28.2205 1.89969 28.4541 2.71576 28.5621 3.63435C28.6431 4.32191 28.6613 5.15185 28.6655 6.13292C28.6665 6.38408 28.6671 6.50967 28.5889 6.58817C28.5107 6.66667 28.3848 6.66667 28.1329 6.66667L24.3333 6.66667C23.0447 6.66667 22 7.71134 22 9V14.3333C22 15.622 23.0447 16.6667 24.3333 16.6667H28.1329C28.3848 16.6667 28.5107 16.6667 28.5889 16.7452C28.6671 16.8237 28.6665 16.9492 28.6655 17.2004C28.6613 18.1814 28.6431 19.0115 28.5621 19.6991C28.4541 20.6176 28.2205 21.4336 27.6381 22.0992C27.0391 22.784 26.2748 23.0775 25.4112 23.2101C24.6089 23.3335 23.6017 23.3335 22.4105 23.3333L15.8667 23.3333C15.6152 23.3333 15.4896 23.3333 15.4115 23.2552Z" fill="#2EAD00"/>
<path d="M24.3333 8.66667L28.1333 8.66667C28.3848 8.66667 28.5104 8.66667 28.5885 8.74478C28.6667 8.82288 28.6667 8.94859 28.6667 9.2V14.1333C28.6667 14.3848 28.6667 14.5104 28.5885 14.5885C28.5104 14.6667 28.3848 14.6667 28.1333 14.6667L24.3333 14.6667C24.1492 14.6667 24 14.5175 24 14.3333V9C24 8.81591 24.1492 8.66667 24.3333 8.66667Z" fill="#2EAD00"/>
<path d="M14.3333 10C13.4128 10 12.6667 10.7462 12.6667 11.6667C12.6667 12.5871 13.4128 13.3333 14.3333 13.3333C15.2539 13.3333 16 12.5871 16 11.6667C16 10.7462 15.2539 10 14.3333 10Z" fill="#2EAD00"/>
</svg>
