<svg width="452" height="439" viewBox="0 0 452 439" fill="none" xmlns="http://www.w3.org/2000/svg">
<path d="M194.825 438.284C289.826 438.284 366.839 433.486 366.839 427.568C366.839 421.649 289.826 416.852 194.825 416.852C99.8249 416.852 22.8118 421.649 22.8118 427.568C22.8118 433.486 99.8249 438.284 194.825 438.284Z" fill="#599C40"/>
<path opacity="0.8" d="M194.825 438.284C289.826 438.284 366.839 433.486 366.839 427.568C366.839 421.649 289.826 416.852 194.825 416.852C99.8249 416.852 22.8118 421.649 22.8118 427.568C22.8118 433.486 99.8249 438.284 194.825 438.284Z" fill="white"/>
<path d="M324.086 20.0789H151.126C139.185 20.0789 129.505 29.759 129.505 41.7002V406.848C129.505 418.789 139.185 428.469 151.126 428.469H324.086C336.027 428.469 345.707 418.789 345.707 406.848V41.7002C345.707 29.759 336.027 20.0789 324.086 20.0789Z" fill="#263238"/>
<path d="M336.093 64.924H139.108V383.624H336.093V64.924Z" fill="white" stroke="#263238" stroke-width="1.33739" stroke-miterlimit="10"/>
<path d="M267.798 193.975C284.472 177.3 284.472 150.266 267.797 133.592C251.123 116.917 224.089 116.917 207.414 133.592C190.74 150.266 190.74 177.3 207.414 193.975C224.089 210.649 251.123 210.649 267.798 193.975Z" fill="#599C40"/>
<path d="M293.662 363.583H181.561C181.309 363.584 181.059 363.536 180.825 363.44C180.592 363.345 180.379 363.204 180.2 363.026C180.021 362.848 179.879 362.637 179.783 362.404C179.686 362.171 179.636 361.921 179.636 361.669C179.634 361.416 179.683 361.165 179.779 360.93C179.876 360.696 180.017 360.483 180.196 360.304C180.375 360.125 180.588 359.984 180.823 359.887C181.057 359.791 181.308 359.742 181.561 359.744H293.662C293.915 359.744 294.164 359.794 294.397 359.891C294.63 359.987 294.842 360.129 295.02 360.308C295.198 360.487 295.338 360.7 295.434 360.933C295.529 361.167 295.578 361.417 295.576 361.669C295.576 362.177 295.375 362.663 295.016 363.022C294.657 363.381 294.17 363.583 293.662 363.583Z" fill="#599C40"/>
<path d="M297.312 230.483H177.9C175.436 230.483 173.438 232.481 173.438 234.946V249.022C173.438 251.487 175.436 253.484 177.9 253.484H297.312C299.777 253.484 301.775 251.487 301.775 249.022V234.946C301.775 232.481 299.777 230.483 297.312 230.483Z" fill="#599C40"/>
<path d="M297.312 273.503H177.9C175.436 273.503 173.438 275.501 173.438 277.966V292.042C173.438 294.507 175.436 296.504 177.9 296.504H297.312C299.777 296.504 301.775 294.507 301.775 292.042V277.966C301.775 275.501 299.777 273.503 297.312 273.503Z" fill="#599C40"/>
<path d="M258.866 185.082L246.303 177.849V171.873C248.122 169.672 249.439 167.102 250.164 164.34C250.596 164.493 251.052 164.572 251.51 164.573C253.068 164.573 254.059 159.744 254.226 156.294C256.039 152.455 253.569 150.207 253.569 150.207C253.569 150.207 254.593 149.184 255.272 145.077C255.95 140.971 252.879 142.685 250.487 138.924C248.094 135.163 246.38 131.068 238.524 131.068C236.359 130.996 234.223 131.578 232.394 132.737C230.564 133.896 229.125 135.579 228.264 137.566C226.309 137.573 224.36 137.801 222.456 138.245C220.052 138.924 219.373 146.791 221.421 149.874C222.337 151.558 222.826 153.442 222.845 155.36C222.3 154.692 221.732 154.514 221.421 156.027C220.742 159.443 223.479 164.228 223.479 164.228L224.893 163.828C225.605 166.779 226.978 169.531 228.91 171.873V177.849L216.346 185.082C214.879 185.929 213.661 187.147 212.813 188.614C211.965 190.081 211.518 191.745 211.517 193.439V197.578C218.989 203.351 228.164 206.482 237.606 206.482C247.048 206.482 256.223 203.351 263.695 197.578V193.439C263.696 191.744 263.25 190.079 262.402 188.612C261.554 187.145 260.334 185.927 258.866 185.082Z" fill="#263238"/>
<path d="M189.695 290.785C189.407 290.781 189.132 290.665 188.928 290.462C188.818 290.364 188.731 290.244 188.671 290.11C188.612 289.975 188.582 289.83 188.583 289.683C188.586 289.482 188.644 289.286 188.75 289.116L190.753 285.911L186.847 286.033C186.699 286.042 186.552 286.02 186.414 285.969C186.276 285.917 186.15 285.837 186.045 285.733C185.864 285.529 185.764 285.266 185.764 284.993C185.764 284.72 185.864 284.457 186.045 284.253C186.148 284.145 186.273 284.062 186.411 284.008C186.55 283.954 186.698 283.931 186.847 283.941L190.697 284.086L188.716 280.892C188.608 280.718 188.551 280.518 188.549 280.314C188.548 280.167 188.578 280.021 188.638 279.887C188.697 279.753 188.785 279.633 188.894 279.535C189.099 279.332 189.374 279.216 189.662 279.212C189.852 279.213 190.037 279.268 190.197 279.371C190.356 279.473 190.483 279.619 190.563 279.791L192.466 283.229L194.347 279.813C194.436 279.631 194.573 279.476 194.744 279.366C194.915 279.256 195.112 279.195 195.315 279.19C195.456 279.19 195.595 279.221 195.723 279.278C195.851 279.336 195.966 279.419 196.06 279.523C196.265 279.735 196.377 280.019 196.372 280.314C196.371 280.505 196.322 280.692 196.227 280.859L194.213 284.086L198.119 283.941C198.267 283.931 198.416 283.954 198.554 284.008C198.693 284.062 198.818 284.145 198.92 284.253C199.11 284.45 199.214 284.714 199.21 284.987C199.209 285.263 199.106 285.529 198.92 285.733C198.816 285.837 198.69 285.917 198.552 285.969C198.414 286.02 198.266 286.042 198.119 286.033L194.191 285.911L196.15 289.082C196.259 289.259 196.317 289.464 196.316 289.672C196.316 289.967 196.199 290.25 195.991 290.459C195.782 290.668 195.499 290.785 195.204 290.785C195.013 290.782 194.827 290.724 194.669 290.617C194.511 290.511 194.387 290.36 194.313 290.184L192.455 286.846L190.608 290.184C190.526 290.358 190.397 290.507 190.236 290.613C190.075 290.719 189.888 290.778 189.695 290.785Z" fill="#263238"/>
<path d="M207.745 290.785C207.457 290.781 207.181 290.665 206.977 290.462C206.867 290.364 206.78 290.244 206.721 290.11C206.661 289.975 206.631 289.83 206.632 289.683C206.635 289.482 206.693 289.286 206.799 289.116L208.802 285.911L204.907 286.033C204.758 286.04 204.61 286.017 204.47 285.965C204.331 285.914 204.203 285.835 204.095 285.733C203.947 285.58 203.849 285.387 203.812 285.178C203.776 284.969 203.803 284.754 203.891 284.56C203.979 284.367 204.122 284.205 204.304 284.094C204.485 283.984 204.695 283.931 204.907 283.941L208.746 284.086L206.765 280.892C206.658 280.718 206.6 280.518 206.599 280.314C206.597 280.167 206.628 280.021 206.687 279.887C206.747 279.753 206.834 279.633 206.943 279.535C207.148 279.332 207.423 279.216 207.711 279.212C207.901 279.213 208.086 279.268 208.246 279.371C208.405 279.473 208.533 279.619 208.613 279.791L210.516 283.229L212.396 279.813C212.485 279.631 212.623 279.476 212.793 279.366C212.964 279.256 213.161 279.195 213.364 279.19C213.505 279.189 213.644 279.219 213.773 279.276C213.902 279.334 214.016 279.418 214.11 279.523C214.213 279.627 214.295 279.751 214.35 279.886C214.405 280.022 214.433 280.167 214.432 280.314C214.429 280.506 214.375 280.694 214.277 280.859L212.263 284.086L216.18 283.963C216.326 283.954 216.473 283.976 216.61 284.03C216.746 284.084 216.869 284.168 216.97 284.275C217.159 284.472 217.263 284.736 217.259 285.009C217.258 285.285 217.155 285.551 216.97 285.755C216.867 285.858 216.743 285.939 216.607 285.991C216.471 286.042 216.325 286.065 216.18 286.056L212.24 285.933L214.199 289.105C214.309 289.282 214.366 289.486 214.366 289.694C214.366 289.989 214.248 290.272 214.04 290.481C213.831 290.69 213.548 290.807 213.253 290.807C213.062 290.805 212.876 290.746 212.718 290.64C212.56 290.533 212.436 290.382 212.363 290.206L210.504 286.868L208.657 290.206C208.572 290.377 208.442 290.52 208.281 290.622C208.121 290.724 207.935 290.781 207.745 290.785Z" fill="#263238"/>
<path d="M225.805 290.785C225.513 290.784 225.233 290.668 225.026 290.462C224.917 290.364 224.829 290.244 224.77 290.11C224.71 289.975 224.68 289.83 224.681 289.683C224.685 289.482 224.742 289.286 224.848 289.116L226.851 285.911L222.956 286.033C222.747 286.042 222.539 285.987 222.36 285.877C222.182 285.767 222.04 285.607 221.952 285.416C221.865 285.225 221.837 285.012 221.871 284.805C221.905 284.598 222 284.406 222.144 284.253C222.249 284.146 222.376 284.062 222.516 284.009C222.656 283.955 222.807 283.932 222.956 283.941L226.795 284.086L224.815 280.892C224.707 280.718 224.649 280.518 224.648 280.314C224.651 280.167 224.684 280.023 224.743 279.89C224.802 279.756 224.887 279.635 224.993 279.535C225.2 279.329 225.48 279.213 225.772 279.212C225.959 279.215 226.142 279.271 226.3 279.374C226.457 279.476 226.583 279.62 226.662 279.791L228.565 283.229L230.445 279.813C230.535 279.631 230.672 279.476 230.843 279.366C231.013 279.256 231.211 279.195 231.414 279.19C231.554 279.189 231.694 279.219 231.822 279.276C231.951 279.334 232.066 279.418 232.159 279.523C232.262 279.627 232.344 279.751 232.399 279.886C232.455 280.022 232.483 280.167 232.482 280.314C232.478 280.506 232.424 280.694 232.326 280.859L230.312 284.086L234.229 283.941C234.373 283.927 234.518 283.943 234.655 283.99C234.792 284.037 234.918 284.112 235.023 284.211C235.129 284.31 235.212 284.431 235.267 284.565C235.322 284.698 235.347 284.843 235.342 284.987C235.344 285.262 235.245 285.527 235.063 285.733C234.959 285.837 234.833 285.917 234.695 285.969C234.557 286.02 234.409 286.042 234.262 286.033L230.334 285.911L232.281 289.082C232.391 289.259 232.449 289.464 232.448 289.672C232.445 289.818 232.413 289.962 232.353 290.096C232.294 290.229 232.209 290.35 232.103 290.451C232.007 290.555 231.89 290.638 231.759 290.696C231.629 290.753 231.489 290.784 231.347 290.785C231.158 290.782 230.973 290.723 230.817 290.616C230.661 290.509 230.539 290.359 230.468 290.184L228.598 286.846L226.751 290.184C226.668 290.364 226.534 290.517 226.366 290.623C226.199 290.73 226.004 290.786 225.805 290.785Z" fill="#263238"/>
<path d="M243.854 290.785C243.562 290.784 243.283 290.668 243.075 290.462C242.866 290.257 242.746 289.977 242.742 289.683C242.738 289.483 242.792 289.286 242.897 289.116L244.9 285.911L241.006 286.033C240.857 286.04 240.709 286.017 240.569 285.965C240.43 285.914 240.302 285.835 240.193 285.733C240.012 285.529 239.912 285.266 239.912 284.993C239.912 284.72 240.012 284.457 240.193 284.253C240.301 284.149 240.428 284.068 240.568 284.014C240.707 283.961 240.856 283.936 241.006 283.941L244.856 284.086L242.886 280.892C242.779 280.718 242.721 280.518 242.719 280.314C242.723 280.167 242.755 280.023 242.814 279.89C242.874 279.756 242.958 279.635 243.064 279.535C243.272 279.329 243.551 279.213 243.843 279.212C244.033 279.213 244.218 279.268 244.378 279.371C244.537 279.473 244.665 279.619 244.745 279.791L246.636 283.229L248.517 279.813C248.606 279.631 248.744 279.476 248.914 279.366C249.085 279.256 249.282 279.195 249.485 279.19C249.626 279.189 249.765 279.219 249.894 279.276C250.022 279.334 250.137 279.418 250.231 279.523C250.334 279.627 250.415 279.751 250.471 279.886C250.526 280.022 250.554 280.167 250.553 280.314C250.549 280.506 250.496 280.694 250.398 280.859L248.383 284.086L252.3 283.941C252.444 283.927 252.59 283.943 252.727 283.99C252.864 284.037 252.989 284.112 253.095 284.211C253.2 284.31 253.283 284.431 253.338 284.565C253.393 284.698 253.419 284.843 253.413 284.987C253.416 285.262 253.316 285.527 253.135 285.733C253.03 285.837 252.905 285.917 252.767 285.969C252.628 286.02 252.481 286.042 252.334 286.033L248.406 285.911L250.353 289.082C250.463 289.259 250.521 289.464 250.52 289.672C250.521 289.819 250.491 289.964 250.431 290.099C250.372 290.233 250.284 290.353 250.175 290.451C250.078 290.555 249.961 290.638 249.831 290.696C249.701 290.753 249.56 290.784 249.418 290.785C249.229 290.782 249.045 290.723 248.889 290.616C248.732 290.509 248.611 290.359 248.539 290.184L246.67 286.846L244.823 290.184C244.738 290.368 244.601 290.523 244.429 290.63C244.257 290.736 244.057 290.79 243.854 290.785Z" fill="#263238"/>
<path d="M261.904 290.785C261.612 290.784 261.332 290.668 261.125 290.462C260.952 290.287 260.843 290.061 260.812 289.817C260.782 289.574 260.833 289.327 260.958 289.116L262.95 285.911L259.055 286.033C258.906 286.04 258.758 286.017 258.618 285.965C258.479 285.914 258.351 285.835 258.243 285.733C258.061 285.529 257.961 285.266 257.961 284.993C257.961 284.72 258.061 284.457 258.243 284.253C258.35 284.149 258.478 284.068 258.617 284.014C258.757 283.961 258.906 283.936 259.055 283.941L262.905 284.086L260.924 280.892C260.817 280.718 260.759 280.518 260.758 280.314C260.762 280.02 260.882 279.74 261.091 279.535C261.299 279.329 261.578 279.213 261.87 279.212C262.06 279.213 262.245 279.268 262.405 279.371C262.564 279.473 262.692 279.619 262.772 279.791L264.663 283.229L266.544 279.813C266.633 279.631 266.771 279.476 266.941 279.366C267.112 279.256 267.309 279.195 267.512 279.19C267.655 279.189 267.796 279.218 267.926 279.276C268.056 279.333 268.173 279.418 268.269 279.524C268.473 279.735 268.585 280.019 268.58 280.314C268.576 280.506 268.523 280.694 268.425 280.859L266.41 284.086L270.327 283.941C270.471 283.927 270.617 283.943 270.754 283.99C270.891 284.037 271.016 284.112 271.122 284.211C271.227 284.31 271.31 284.431 271.365 284.565C271.42 284.699 271.446 284.843 271.44 284.987C271.443 285.262 271.343 285.527 271.162 285.733C271.057 285.837 270.932 285.917 270.794 285.969C270.655 286.02 270.508 286.042 270.361 286.033L266.433 285.911L268.38 289.082C268.49 289.259 268.548 289.464 268.547 289.672C268.548 289.819 268.518 289.964 268.458 290.099C268.399 290.233 268.312 290.353 268.202 290.451C268.105 290.555 267.988 290.638 267.858 290.696C267.728 290.753 267.588 290.784 267.445 290.785C267.256 290.782 267.072 290.723 266.916 290.616C266.76 290.509 266.638 290.359 266.566 290.184L264.697 286.846L262.85 290.184C262.766 290.364 262.633 290.517 262.465 290.623C262.297 290.73 262.102 290.786 261.904 290.785Z" fill="#263238"/>
<path d="M279.953 290.785C279.665 290.781 279.39 290.665 279.185 290.462C279.076 290.364 278.988 290.244 278.929 290.11C278.869 289.975 278.839 289.83 278.84 289.683C278.844 289.482 278.901 289.286 279.007 289.116L280.999 285.911L277.104 286.033C276.961 286.044 276.817 286.025 276.682 285.977C276.546 285.929 276.422 285.854 276.317 285.755C276.213 285.657 276.13 285.538 276.074 285.406C276.017 285.273 275.99 285.131 275.991 284.987C275.991 284.851 276.017 284.716 276.068 284.59C276.12 284.464 276.196 284.349 276.292 284.253C276.394 284.145 276.519 284.062 276.658 284.008C276.796 283.954 276.945 283.931 277.093 283.941L280.943 284.086L278.963 280.892C278.855 280.718 278.797 280.518 278.796 280.314C278.8 280.02 278.92 279.74 279.13 279.535C279.337 279.329 279.617 279.213 279.908 279.212C280.098 279.213 280.283 279.268 280.443 279.371C280.603 279.473 280.73 279.619 280.81 279.791L282.702 283.229L284.593 279.813C284.682 279.632 284.817 279.479 284.986 279.369C285.154 279.259 285.349 279.197 285.55 279.19C285.693 279.189 285.834 279.218 285.964 279.276C286.095 279.333 286.211 279.418 286.307 279.524C286.511 279.735 286.623 280.019 286.619 280.314C286.618 280.505 286.568 280.693 286.474 280.859L284.46 284.086L288.366 283.941C288.514 283.931 288.662 283.954 288.801 284.008C288.939 284.062 289.064 284.145 289.167 284.253C289.356 284.45 289.46 284.714 289.456 284.987C289.455 285.263 289.352 285.529 289.167 285.733C289.062 285.837 288.936 285.917 288.798 285.969C288.66 286.02 288.513 286.042 288.366 286.033L284.437 285.911L286.385 289.082C286.495 289.259 286.552 289.464 286.552 289.672C286.548 289.966 286.428 290.246 286.218 290.451C286.015 290.658 285.74 290.778 285.45 290.785C285.261 290.782 285.077 290.723 284.921 290.616C284.764 290.509 284.643 290.359 284.571 290.184L282.702 286.846L280.854 290.184C280.774 290.358 280.648 290.506 280.489 290.612C280.329 290.718 280.144 290.778 279.953 290.785Z" fill="#263238"/>
<g style="mix-blend-mode:multiply">
<path d="M336.093 65.3468H139.108V77.6875H336.093V65.3468Z" fill="#599C40"/>
</g>
<path d="M259.022 42.6127H216.18C215.406 42.6127 214.665 42.3055 214.118 41.7588C213.571 41.212 213.264 40.4705 213.264 39.6972C213.264 38.924 213.571 38.1824 214.118 37.6357C214.665 37.0889 215.406 36.7817 216.18 36.7817H259.022C259.795 36.7817 260.536 37.0889 261.083 37.6357C261.63 38.1824 261.937 38.924 261.937 39.6972C261.937 40.4705 261.63 41.212 261.083 41.7588C260.536 42.3055 259.795 42.6127 259.022 42.6127Z" fill="#599C40" stroke="#263238" stroke-width="1.33739" stroke-linecap="round" stroke-linejoin="round"/>
<path d="M249.285 401.629C249.287 399.317 248.603 397.056 247.32 395.133C246.037 393.21 244.213 391.711 242.077 390.825C239.942 389.939 237.591 389.707 235.324 390.157C233.056 390.608 230.973 391.721 229.339 393.356C227.704 394.99 226.591 397.073 226.14 399.341C225.69 401.608 225.922 403.959 226.808 406.094C227.694 408.23 229.193 410.054 231.116 411.337C233.039 412.62 235.3 413.304 237.612 413.302C240.707 413.299 243.674 412.068 245.863 409.88C248.051 407.691 249.282 404.724 249.285 401.629Z" fill="#599C40"/>
<path d="M243.532 395.709H231.692V407.549H243.532V395.709Z" fill="#599C40" stroke="#263238" stroke-width="1.33739" stroke-linecap="round" stroke-linejoin="round"/>
<path d="M378.645 267.272C378.645 267.272 363.133 227.857 376.943 223.172C391.32 218.287 390.686 244.315 390.129 257.001C388.961 284.108 385.968 289.149 383.731 282.528L378.645 267.272ZM373.983 298.018C378.245 303.582 379.447 297.818 371.757 271.79C368.152 259.549 360.318 234.79 348.3 244.082C336.76 252.984 364.224 285.254 364.224 285.254L373.983 298.018ZM365.748 320.607C369.81 324.213 369.888 319.662 360.24 300.867C355.711 292.065 346.13 274.249 338.285 283.062C330.751 291.564 356.423 312.228 356.423 312.228L365.748 320.607ZM356.846 347.47C360.908 351.086 360.986 346.524 351.338 327.74C346.809 318.938 337.228 301.111 329.383 309.936C321.894 318.46 347.488 339.124 347.488 339.124L356.846 347.47ZM382.551 292.788C376.053 295.325 381.216 298.085 408.357 298.007C421.087 298.007 447.081 297.428 441.54 283.285C436.232 269.698 397.574 287.001 397.574 287.001L382.551 292.788ZM375.151 310.859C368.274 312.05 372.792 315.789 399.41 321.108C411.884 323.612 437.467 328.23 434.852 313.319C432.348 298.942 391.02 308.222 391.02 308.222L375.151 310.859ZM366.872 332.926C361.019 333.772 364.758 337.032 387.136 342.151C397.629 344.554 419.162 349.061 417.292 336.342C415.512 324.102 380.348 331.023 380.348 331.023L366.872 332.926ZM360.585 353.368C354.854 354.825 358.916 357.674 381.728 360.389C392.411 361.658 414.299 363.861 411.105 351.409C408.023 339.458 373.794 350.04 373.794 350.04L360.585 353.368ZM394.124 270.61C390.786 278.088 397.719 276.953 421.287 256.389C432.326 246.741 454.47 226.555 436.933 216.507C420.097 206.848 401.992 253.451 401.992 253.451L394.124 270.61ZM361.453 379.996C357.925 382.055 361.386 382.856 377.566 379.629C385.155 378.127 400.589 374.789 395.371 368.201C390.319 361.858 369.621 375.211 369.621 375.211L361.453 379.996Z" fill="#599C40"/>
<path opacity="0.3" d="M378.645 267.272C378.645 267.272 363.133 227.857 376.943 223.172C391.32 218.287 390.686 244.315 390.129 257.001C388.961 284.108 385.968 289.149 383.731 282.528L378.645 267.272ZM373.983 298.018C378.245 303.582 379.447 297.818 371.757 271.79C368.152 259.549 360.318 234.79 348.3 244.082C336.76 252.984 364.224 285.254 364.224 285.254L373.983 298.018ZM365.748 320.607C369.81 324.213 369.888 319.662 360.24 300.867C355.711 292.065 346.13 274.249 338.285 283.062C330.751 291.564 356.423 312.228 356.423 312.228L365.748 320.607ZM356.846 347.47C360.908 351.086 360.986 346.524 351.338 327.74C346.809 318.938 337.228 301.111 329.383 309.936C321.894 318.46 347.488 339.124 347.488 339.124L356.846 347.47ZM382.551 292.788C376.053 295.325 381.216 298.085 408.357 298.007C421.087 298.007 447.081 297.428 441.54 283.285C436.232 269.698 397.574 287.001 397.574 287.001L382.551 292.788ZM375.151 310.859C368.274 312.05 372.792 315.789 399.41 321.108C411.884 323.612 437.467 328.23 434.852 313.319C432.348 298.942 391.02 308.222 391.02 308.222L375.151 310.859ZM366.872 332.926C361.019 333.772 364.758 337.032 387.136 342.151C397.629 344.554 419.162 349.061 417.292 336.342C415.512 324.102 380.348 331.023 380.348 331.023L366.872 332.926ZM360.585 353.368C354.854 354.825 358.916 357.674 381.728 360.389C392.411 361.658 414.299 363.861 411.105 351.409C408.023 339.458 373.794 350.04 373.794 350.04L360.585 353.368ZM394.124 270.61C390.786 278.088 397.719 276.953 421.287 256.389C432.326 246.741 454.47 226.555 436.933 216.507C420.097 206.848 401.992 253.451 401.992 253.451L394.124 270.61ZM361.453 379.996C357.925 382.055 361.386 382.856 377.566 379.629C385.155 378.127 400.589 374.789 395.371 368.201C390.319 361.858 369.621 375.211 369.621 375.211L361.453 379.996Z" fill="white"/>
<path d="M385.489 285.622L382.785 240.632L385.489 285.622ZM376.932 300.466L359.839 261.775L376.932 300.466ZM421.042 289.216L380.081 295.091L421.042 289.216ZM368.074 321.32L345.896 292.866L368.074 321.32ZM371.969 312.595L402.526 314.131L371.969 312.595ZM364.736 334.417L388.104 336.732L364.736 334.417ZM359.094 348.282L347.488 330.823L359.094 348.282ZM357.759 354.447L385.233 354.703L357.759 354.447ZM352.195 405.991C352.379 405.977 352.55 405.89 352.671 405.751C352.791 405.611 352.852 405.43 352.84 405.245C351.093 379.006 361.242 336.031 377.522 300.755C387.926 278.21 428.709 233.9 429.143 233.454C429.275 233.323 429.348 233.145 429.348 232.959C429.348 232.774 429.275 232.596 429.143 232.464C429.079 232.4 429.003 232.348 428.919 232.313C428.835 232.278 428.745 232.26 428.654 232.26C428.563 232.26 428.473 232.278 428.389 232.313C428.305 232.348 428.228 232.4 428.164 232.464C427.752 232.909 386.802 277.387 376.309 300.132C359.728 336.264 349.713 378.461 351.494 405.334C351.507 405.512 351.587 405.677 351.717 405.799C351.847 405.92 352.017 405.989 352.195 405.991ZM385.478 286.312C385.662 286.3 385.834 286.217 385.957 286.079C386.08 285.942 386.144 285.761 386.134 285.577L383.475 240.565C383.471 240.474 383.448 240.384 383.409 240.301C383.369 240.218 383.314 240.144 383.246 240.083C383.177 240.022 383.097 239.975 383.011 239.945C382.924 239.915 382.832 239.903 382.74 239.909C382.556 239.92 382.384 240.004 382.261 240.141C382.139 240.279 382.075 240.459 382.084 240.643L384.788 285.633C384.797 285.81 384.873 285.977 385.002 286.099C385.13 286.221 385.301 286.289 385.478 286.289V286.312ZM377.177 301.1C377.343 301.025 377.474 300.887 377.54 300.717C377.607 300.546 377.604 300.356 377.533 300.188L360.429 261.497C360.355 261.328 360.218 261.196 360.047 261.13C359.876 261.063 359.685 261.067 359.517 261.14C359.349 261.214 359.216 261.352 359.15 261.523C359.083 261.694 359.087 261.885 359.161 262.053L376.253 300.744C376.307 300.868 376.395 300.974 376.508 301.049C376.62 301.124 376.752 301.165 376.887 301.167C377.002 301.173 377.117 301.15 377.221 301.1H377.177ZM380.137 295.759L421.076 289.906C421.175 289.904 421.272 289.881 421.361 289.838C421.451 289.796 421.53 289.735 421.594 289.66C421.658 289.585 421.706 289.497 421.734 289.402C421.762 289.307 421.769 289.208 421.756 289.11C421.742 289.012 421.708 288.918 421.656 288.834C421.604 288.75 421.534 288.678 421.452 288.623C421.37 288.568 421.277 288.531 421.18 288.514C421.082 288.497 420.982 288.501 420.887 288.526L379.947 294.379C379.764 294.391 379.594 294.475 379.473 294.613C379.352 294.75 379.29 294.931 379.302 295.114C379.314 295.297 379.398 295.467 379.536 295.588C379.673 295.709 379.853 295.771 380.036 295.759H380.137ZM368.464 321.876C368.609 321.762 368.703 321.595 368.726 321.412C368.749 321.228 368.699 321.043 368.586 320.897L346.397 292.387C346.283 292.24 346.116 292.143 345.931 292.119C345.746 292.095 345.56 292.146 345.412 292.259C345.265 292.373 345.168 292.541 345.144 292.725C345.12 292.91 345.171 293.097 345.284 293.244L367.518 321.798C367.582 321.881 367.665 321.949 367.759 321.995C367.854 322.041 367.958 322.065 368.063 322.065C368.229 322.057 368.387 321.99 368.508 321.876H368.464ZM403.138 314.164C403.144 313.98 403.077 313.801 402.952 313.666C402.827 313.531 402.654 313.45 402.47 313.441L371.969 311.894C371.797 311.906 371.636 311.98 371.516 312.103C371.396 312.226 371.325 312.389 371.317 312.56C371.308 312.732 371.363 312.9 371.471 313.034C371.579 313.168 371.733 313.257 371.902 313.285L402.459 314.832C402.643 314.838 402.822 314.771 402.957 314.647C403.093 314.522 403.174 314.348 403.182 314.164H403.138ZM388.749 336.798C388.76 336.707 388.753 336.614 388.727 336.525C388.701 336.437 388.658 336.354 388.6 336.283C388.542 336.211 388.47 336.152 388.389 336.109C388.307 336.065 388.218 336.039 388.126 336.031L364.758 333.727C364.667 333.718 364.576 333.727 364.488 333.753C364.401 333.78 364.32 333.823 364.25 333.881C364.179 333.939 364.121 334.01 364.079 334.091C364.036 334.171 364.01 334.259 364.001 334.35C363.986 334.533 364.042 334.714 364.159 334.856C364.275 334.997 364.442 335.087 364.624 335.107L387.993 337.422H388.06C388.239 337.434 388.416 337.376 388.554 337.259C388.691 337.143 388.777 336.977 388.794 336.798H388.749ZM359.428 348.861C359.582 348.759 359.69 348.6 359.728 348.418C359.765 348.237 359.729 348.048 359.628 347.893L348.077 330.433C347.972 330.283 347.812 330.179 347.631 330.144C347.451 330.109 347.264 330.145 347.109 330.244C346.955 330.346 346.847 330.505 346.809 330.687C346.772 330.868 346.808 331.057 346.909 331.212L358.46 348.672C358.526 348.767 358.614 348.845 358.716 348.9C358.819 348.954 358.933 348.982 359.049 348.983C359.2 348.991 359.349 348.948 359.472 348.861H359.428ZM385.934 354.703C385.931 354.52 385.858 354.345 385.73 354.214C385.601 354.084 385.427 354.008 385.244 354.002L357.77 353.746C357.587 353.746 357.411 353.819 357.282 353.948C357.152 354.077 357.08 354.253 357.08 354.436C357.077 354.528 357.092 354.619 357.126 354.705C357.159 354.791 357.21 354.869 357.274 354.934C357.339 355 357.416 355.052 357.501 355.087C357.586 355.121 357.678 355.139 357.77 355.137L385.244 355.393C385.338 355.397 385.432 355.383 385.52 355.35C385.608 355.318 385.689 355.268 385.758 355.204C385.826 355.139 385.881 355.062 385.919 354.976C385.957 354.89 385.977 354.797 385.979 354.703H385.934ZM349.068 395.787C349.123 395.664 353.808 382.756 367.896 379.674C368.077 379.634 368.236 379.523 368.336 379.367C368.436 379.211 368.47 379.021 368.43 378.839C368.385 378.661 368.273 378.508 368.118 378.41C367.962 378.313 367.775 378.279 367.596 378.316C352.74 381.565 347.81 395.197 347.755 395.331C347.697 395.506 347.711 395.697 347.792 395.863C347.873 396.03 348.015 396.158 348.189 396.221H348.411C348.559 396.234 348.707 396.198 348.834 396.12C348.96 396.042 349.058 395.925 349.112 395.787H349.068ZM352.195 405.991C352.379 405.977 352.55 405.89 352.671 405.751C352.791 405.611 352.852 405.43 352.84 405.245C351.093 379.006 361.242 336.031 377.522 300.755C387.926 278.21 428.709 233.9 429.143 233.454C429.275 233.323 429.348 233.145 429.348 232.959C429.348 232.774 429.275 232.596 429.143 232.464C429.079 232.4 429.003 232.348 428.919 232.313C428.835 232.278 428.745 232.26 428.654 232.26C428.563 232.26 428.473 232.278 428.389 232.313C428.305 232.348 428.228 232.4 428.164 232.464C427.752 232.909 386.802 277.387 376.309 300.132C359.728 336.264 349.713 378.461 351.494 405.334C351.507 405.512 351.587 405.677 351.717 405.799C351.847 405.92 352.017 405.989 352.195 405.991ZM385.478 286.312C385.662 286.3 385.834 286.217 385.957 286.079C386.08 285.942 386.144 285.761 386.134 285.577L383.475 240.565C383.471 240.474 383.448 240.384 383.409 240.301C383.369 240.218 383.314 240.144 383.246 240.083C383.177 240.022 383.097 239.975 383.011 239.945C382.924 239.915 382.832 239.903 382.74 239.909C382.556 239.92 382.384 240.004 382.261 240.141C382.139 240.279 382.075 240.459 382.084 240.643L384.788 285.633C384.797 285.81 384.873 285.977 385.002 286.099C385.13 286.221 385.301 286.289 385.478 286.289V286.312ZM377.177 301.1C377.343 301.025 377.474 300.887 377.54 300.717C377.607 300.546 377.604 300.356 377.533 300.188L360.429 261.497C360.355 261.328 360.218 261.196 360.047 261.13C359.876 261.063 359.685 261.067 359.517 261.14C359.349 261.214 359.216 261.352 359.15 261.523C359.083 261.694 359.087 261.885 359.161 262.053L376.253 300.744C376.307 300.868 376.395 300.974 376.508 301.049C376.62 301.124 376.752 301.165 376.887 301.167C377.002 301.173 377.117 301.15 377.221 301.1H377.177ZM380.137 295.759L421.076 289.906C421.175 289.904 421.272 289.881 421.361 289.838C421.451 289.796 421.53 289.735 421.594 289.66C421.658 289.585 421.706 289.497 421.734 289.402C421.762 289.307 421.769 289.208 421.756 289.11C421.742 289.012 421.708 288.918 421.656 288.834C421.604 288.75 421.534 288.678 421.452 288.623C421.37 288.568 421.277 288.531 421.18 288.514C421.082 288.497 420.982 288.501 420.887 288.526L379.947 294.379C379.764 294.391 379.594 294.475 379.473 294.613C379.352 294.75 379.29 294.931 379.302 295.114C379.314 295.297 379.398 295.467 379.536 295.588C379.673 295.709 379.853 295.771 380.036 295.759H380.137ZM368.464 321.876C368.609 321.762 368.703 321.595 368.726 321.412C368.749 321.228 368.699 321.043 368.586 320.897L346.397 292.387C346.341 292.314 346.271 292.253 346.191 292.207C346.111 292.161 346.023 292.131 345.931 292.119C345.84 292.107 345.747 292.114 345.658 292.138C345.569 292.162 345.485 292.203 345.412 292.259C345.339 292.316 345.278 292.386 345.232 292.466C345.186 292.546 345.156 292.634 345.144 292.725C345.132 292.817 345.139 292.91 345.163 292.999C345.187 293.088 345.228 293.171 345.284 293.244L367.518 321.798C367.582 321.881 367.665 321.949 367.759 321.995C367.854 322.041 367.958 322.065 368.063 322.065C368.229 322.057 368.387 321.99 368.508 321.876H368.464ZM403.138 314.164C403.144 313.98 403.077 313.801 402.952 313.666C402.827 313.531 402.654 313.45 402.47 313.441L371.969 311.894C371.797 311.906 371.636 311.98 371.516 312.103C371.396 312.226 371.325 312.389 371.317 312.56C371.308 312.732 371.363 312.9 371.471 313.034C371.579 313.168 371.733 313.257 371.902 313.285L402.459 314.832C402.643 314.838 402.822 314.771 402.957 314.647C403.093 314.522 403.174 314.348 403.182 314.164H403.138ZM388.749 336.798C388.76 336.707 388.753 336.614 388.727 336.525C388.701 336.437 388.658 336.354 388.6 336.283C388.542 336.211 388.47 336.152 388.389 336.109C388.307 336.065 388.218 336.039 388.126 336.031L364.758 333.727C364.667 333.718 364.576 333.727 364.488 333.753C364.401 333.78 364.32 333.823 364.25 333.881C364.179 333.939 364.121 334.01 364.079 334.091C364.036 334.171 364.01 334.259 364.001 334.35C363.986 334.533 364.042 334.714 364.159 334.856C364.275 334.997 364.442 335.087 364.624 335.107L387.993 337.422H388.06C388.239 337.434 388.416 337.376 388.554 337.259C388.691 337.143 388.777 336.977 388.794 336.798H388.749ZM359.428 348.861C359.582 348.759 359.69 348.6 359.728 348.418C359.765 348.237 359.729 348.048 359.628 347.893L348.077 330.433C347.972 330.283 347.812 330.179 347.631 330.144C347.451 330.109 347.264 330.145 347.109 330.244C346.955 330.346 346.847 330.505 346.809 330.687C346.772 330.868 346.808 331.057 346.909 331.212L358.46 348.672C358.526 348.767 358.614 348.845 358.716 348.9C358.819 348.954 358.933 348.982 359.049 348.983C359.2 348.991 359.349 348.948 359.472 348.861H359.428ZM385.934 354.703C385.931 354.52 385.858 354.345 385.73 354.214C385.601 354.084 385.427 354.008 385.244 354.002L357.77 353.746C357.587 353.746 357.411 353.819 357.282 353.948C357.152 354.077 357.08 354.253 357.08 354.436C357.077 354.528 357.092 354.619 357.126 354.705C357.159 354.791 357.21 354.869 357.274 354.934C357.339 355 357.416 355.052 357.501 355.087C357.586 355.121 357.678 355.139 357.77 355.137L385.244 355.393C385.338 355.397 385.432 355.383 385.52 355.35C385.608 355.318 385.689 355.268 385.758 355.204C385.826 355.139 385.881 355.062 385.919 354.976C385.957 354.89 385.977 354.797 385.979 354.703H385.934ZM349.068 395.787C349.123 395.664 353.808 382.756 367.896 379.674C368.077 379.634 368.236 379.523 368.336 379.367C368.436 379.211 368.47 379.021 368.43 378.839C368.385 378.661 368.273 378.508 368.118 378.41C367.962 378.313 367.775 378.279 367.596 378.316C352.74 381.565 347.81 395.197 347.755 395.331C347.697 395.506 347.711 395.697 347.792 395.863C347.873 396.03 348.015 396.158 348.189 396.221H348.411C348.559 396.234 348.707 396.198 348.834 396.12C348.96 396.042 349.058 395.925 349.112 395.787H349.068Z" fill="#599C40"/>
<path opacity="0.2" d="M385.489 285.622L382.785 240.632L385.489 285.622ZM376.932 300.466L359.839 261.775L376.932 300.466ZM421.042 289.216L380.081 295.091L421.042 289.216ZM368.074 321.32L345.896 292.866L368.074 321.32ZM371.969 312.595L402.526 314.131L371.969 312.595ZM364.736 334.417L388.104 336.732L364.736 334.417ZM359.094 348.282L347.488 330.823L359.094 348.282ZM357.759 354.447L385.233 354.703L357.759 354.447ZM352.195 405.991C352.379 405.977 352.55 405.89 352.671 405.751C352.791 405.611 352.852 405.43 352.84 405.245C351.093 379.006 361.242 336.031 377.522 300.755C387.926 278.21 428.709 233.9 429.143 233.454C429.275 233.323 429.348 233.145 429.348 232.959C429.348 232.774 429.275 232.596 429.143 232.464C429.079 232.4 429.003 232.348 428.919 232.313C428.835 232.278 428.745 232.26 428.654 232.26C428.563 232.26 428.473 232.278 428.389 232.313C428.305 232.348 428.228 232.4 428.164 232.464C427.752 232.909 386.802 277.387 376.309 300.132C359.728 336.264 349.713 378.461 351.494 405.334C351.507 405.512 351.587 405.677 351.717 405.799C351.847 405.92 352.017 405.989 352.195 405.991ZM385.478 286.312C385.662 286.3 385.834 286.217 385.957 286.079C386.08 285.942 386.144 285.761 386.134 285.577L383.475 240.565C383.471 240.474 383.448 240.384 383.409 240.301C383.369 240.218 383.314 240.144 383.246 240.083C383.177 240.022 383.097 239.975 383.011 239.945C382.924 239.915 382.832 239.903 382.74 239.909C382.556 239.92 382.384 240.004 382.261 240.141C382.139 240.279 382.075 240.459 382.084 240.643L384.788 285.633C384.797 285.81 384.873 285.977 385.002 286.099C385.13 286.221 385.301 286.289 385.478 286.289V286.312ZM377.177 301.1C377.343 301.025 377.474 300.887 377.54 300.717C377.607 300.546 377.604 300.356 377.533 300.188L360.429 261.497C360.355 261.328 360.218 261.196 360.047 261.13C359.876 261.063 359.685 261.067 359.517 261.14C359.349 261.214 359.216 261.352 359.15 261.523C359.083 261.694 359.087 261.885 359.161 262.053L376.253 300.744C376.307 300.868 376.395 300.974 376.508 301.049C376.62 301.124 376.752 301.165 376.887 301.167C377.002 301.173 377.117 301.15 377.221 301.1H377.177ZM380.137 295.759L421.076 289.906C421.175 289.904 421.272 289.881 421.361 289.838C421.451 289.796 421.53 289.735 421.594 289.66C421.658 289.585 421.706 289.497 421.734 289.402C421.762 289.307 421.769 289.208 421.756 289.11C421.742 289.012 421.708 288.918 421.656 288.834C421.604 288.75 421.534 288.678 421.452 288.623C421.37 288.568 421.277 288.531 421.18 288.514C421.082 288.497 420.982 288.501 420.887 288.526L379.947 294.379C379.764 294.391 379.594 294.475 379.473 294.613C379.352 294.75 379.29 294.931 379.302 295.114C379.314 295.297 379.398 295.467 379.536 295.588C379.673 295.709 379.853 295.771 380.036 295.759H380.137ZM368.464 321.876C368.609 321.762 368.703 321.595 368.726 321.412C368.749 321.228 368.699 321.043 368.586 320.897L346.397 292.387C346.283 292.24 346.116 292.143 345.931 292.119C345.746 292.095 345.56 292.146 345.412 292.259C345.265 292.373 345.168 292.541 345.144 292.725C345.12 292.91 345.171 293.097 345.284 293.244L367.518 321.798C367.582 321.881 367.665 321.949 367.759 321.995C367.854 322.041 367.958 322.065 368.063 322.065C368.229 322.057 368.387 321.99 368.508 321.876H368.464ZM403.138 314.164C403.144 313.98 403.077 313.801 402.952 313.666C402.827 313.531 402.654 313.45 402.47 313.441L371.969 311.894C371.797 311.906 371.636 311.98 371.516 312.103C371.396 312.226 371.325 312.389 371.317 312.56C371.308 312.732 371.363 312.9 371.471 313.034C371.579 313.168 371.733 313.257 371.902 313.285L402.459 314.832C402.643 314.838 402.822 314.771 402.957 314.647C403.093 314.522 403.174 314.348 403.182 314.164H403.138ZM388.749 336.798C388.76 336.707 388.753 336.614 388.727 336.525C388.701 336.437 388.658 336.354 388.6 336.283C388.542 336.211 388.47 336.152 388.389 336.109C388.307 336.065 388.218 336.039 388.126 336.031L364.758 333.727C364.667 333.718 364.576 333.727 364.488 333.753C364.401 333.78 364.32 333.823 364.25 333.881C364.179 333.939 364.121 334.01 364.079 334.091C364.036 334.171 364.01 334.259 364.001 334.35C363.986 334.533 364.042 334.714 364.159 334.856C364.275 334.997 364.442 335.087 364.624 335.107L387.993 337.422H388.06C388.239 337.434 388.416 337.376 388.554 337.259C388.691 337.143 388.777 336.977 388.794 336.798H388.749ZM359.428 348.861C359.582 348.759 359.69 348.6 359.728 348.418C359.765 348.237 359.729 348.048 359.628 347.893L348.077 330.433C347.972 330.283 347.812 330.179 347.631 330.144C347.451 330.109 347.264 330.145 347.109 330.244C346.955 330.346 346.847 330.505 346.809 330.687C346.772 330.868 346.808 331.057 346.909 331.212L358.46 348.672C358.526 348.767 358.614 348.845 358.716 348.9C358.819 348.954 358.933 348.982 359.049 348.983C359.2 348.991 359.349 348.948 359.472 348.861H359.428ZM385.934 354.703C385.931 354.52 385.858 354.345 385.73 354.214C385.601 354.084 385.427 354.008 385.244 354.002L357.77 353.746C357.587 353.746 357.411 353.819 357.282 353.948C357.152 354.077 357.08 354.253 357.08 354.436C357.077 354.528 357.092 354.619 357.126 354.705C357.159 354.791 357.21 354.869 357.274 354.934C357.339 355 357.416 355.052 357.501 355.087C357.586 355.121 357.678 355.139 357.77 355.137L385.244 355.393C385.338 355.397 385.432 355.383 385.52 355.35C385.608 355.318 385.689 355.268 385.758 355.204C385.826 355.139 385.881 355.062 385.919 354.976C385.957 354.89 385.977 354.797 385.979 354.703H385.934ZM349.068 395.787C349.123 395.664 353.808 382.756 367.896 379.674C368.077 379.634 368.236 379.523 368.336 379.367C368.436 379.211 368.47 379.021 368.43 378.839C368.385 378.661 368.273 378.508 368.118 378.41C367.962 378.313 367.775 378.279 367.596 378.316C352.74 381.565 347.81 395.197 347.755 395.331C347.697 395.506 347.711 395.697 347.792 395.863C347.873 396.03 348.015 396.158 348.189 396.221H348.411C348.559 396.234 348.707 396.198 348.834 396.12C348.96 396.042 349.058 395.925 349.112 395.787H349.068ZM352.195 405.991C352.379 405.977 352.55 405.89 352.671 405.751C352.791 405.611 352.852 405.43 352.84 405.245C351.093 379.006 361.242 336.031 377.522 300.755C387.926 278.21 428.709 233.9 429.143 233.454C429.275 233.323 429.348 233.145 429.348 232.959C429.348 232.774 429.275 232.596 429.143 232.464C429.079 232.4 429.003 232.348 428.919 232.313C428.835 232.278 428.745 232.26 428.654 232.26C428.563 232.26 428.473 232.278 428.389 232.313C428.305 232.348 428.228 232.4 428.164 232.464C427.752 232.909 386.802 277.387 376.309 300.132C359.728 336.264 349.713 378.461 351.494 405.334C351.507 405.512 351.587 405.677 351.717 405.799C351.847 405.92 352.017 405.989 352.195 405.991ZM385.478 286.312C385.662 286.3 385.834 286.217 385.957 286.079C386.08 285.942 386.144 285.761 386.134 285.577L383.475 240.565C383.471 240.474 383.448 240.384 383.409 240.301C383.369 240.218 383.314 240.144 383.246 240.083C383.177 240.022 383.097 239.975 383.011 239.945C382.924 239.915 382.832 239.903 382.74 239.909C382.556 239.92 382.384 240.004 382.261 240.141C382.139 240.279 382.075 240.459 382.084 240.643L384.788 285.633C384.797 285.81 384.873 285.977 385.002 286.099C385.13 286.221 385.301 286.289 385.478 286.289V286.312ZM377.177 301.1C377.343 301.025 377.474 300.887 377.54 300.717C377.607 300.546 377.604 300.356 377.533 300.188L360.429 261.497C360.355 261.328 360.218 261.196 360.047 261.13C359.876 261.063 359.685 261.067 359.517 261.14C359.349 261.214 359.216 261.352 359.15 261.523C359.083 261.694 359.087 261.885 359.161 262.053L376.253 300.744C376.307 300.868 376.395 300.974 376.508 301.049C376.62 301.124 376.752 301.165 376.887 301.167C377.002 301.173 377.117 301.15 377.221 301.1H377.177ZM380.137 295.759L421.076 289.906C421.175 289.904 421.272 289.881 421.361 289.838C421.451 289.796 421.53 289.735 421.594 289.66C421.658 289.585 421.706 289.497 421.734 289.402C421.762 289.307 421.769 289.208 421.756 289.11C421.742 289.012 421.708 288.918 421.656 288.834C421.604 288.75 421.534 288.678 421.452 288.623C421.37 288.568 421.277 288.531 421.18 288.514C421.082 288.497 420.982 288.501 420.887 288.526L379.947 294.379C379.764 294.391 379.594 294.475 379.473 294.613C379.352 294.75 379.29 294.931 379.302 295.114C379.314 295.297 379.398 295.467 379.536 295.588C379.673 295.709 379.853 295.771 380.036 295.759H380.137ZM368.464 321.876C368.609 321.762 368.703 321.595 368.726 321.412C368.749 321.228 368.699 321.043 368.586 320.897L346.397 292.387C346.341 292.314 346.271 292.253 346.191 292.207C346.111 292.161 346.023 292.131 345.931 292.119C345.84 292.107 345.747 292.114 345.658 292.138C345.569 292.162 345.485 292.203 345.412 292.259C345.339 292.316 345.278 292.386 345.232 292.466C345.186 292.546 345.156 292.634 345.144 292.725C345.132 292.817 345.139 292.91 345.163 292.999C345.187 293.088 345.228 293.171 345.284 293.244L367.518 321.798C367.582 321.881 367.665 321.949 367.759 321.995C367.854 322.041 367.958 322.065 368.063 322.065C368.229 322.057 368.387 321.99 368.508 321.876H368.464ZM403.138 314.164C403.144 313.98 403.077 313.801 402.952 313.666C402.827 313.531 402.654 313.45 402.47 313.441L371.969 311.894C371.797 311.906 371.636 311.98 371.516 312.103C371.396 312.226 371.325 312.389 371.317 312.56C371.308 312.732 371.363 312.9 371.471 313.034C371.579 313.168 371.733 313.257 371.902 313.285L402.459 314.832C402.643 314.838 402.822 314.771 402.957 314.647C403.093 314.522 403.174 314.348 403.182 314.164H403.138ZM388.749 336.798C388.76 336.707 388.753 336.614 388.727 336.525C388.701 336.437 388.658 336.354 388.6 336.283C388.542 336.211 388.47 336.152 388.389 336.109C388.307 336.065 388.218 336.039 388.126 336.031L364.758 333.727C364.667 333.718 364.576 333.727 364.488 333.753C364.401 333.78 364.32 333.823 364.25 333.881C364.179 333.939 364.121 334.01 364.079 334.091C364.036 334.171 364.01 334.259 364.001 334.35C363.986 334.533 364.042 334.714 364.159 334.856C364.275 334.997 364.442 335.087 364.624 335.107L387.993 337.422H388.06C388.239 337.434 388.416 337.376 388.554 337.259C388.691 337.143 388.777 336.977 388.794 336.798H388.749ZM359.428 348.861C359.582 348.759 359.69 348.6 359.728 348.418C359.765 348.237 359.729 348.048 359.628 347.893L348.077 330.433C347.972 330.283 347.812 330.179 347.631 330.144C347.451 330.109 347.264 330.145 347.109 330.244C346.955 330.346 346.847 330.505 346.809 330.687C346.772 330.868 346.808 331.057 346.909 331.212L358.46 348.672C358.526 348.767 358.614 348.845 358.716 348.9C358.819 348.954 358.933 348.982 359.049 348.983C359.2 348.991 359.349 348.948 359.472 348.861H359.428ZM385.934 354.703C385.931 354.52 385.858 354.345 385.73 354.214C385.601 354.084 385.427 354.008 385.244 354.002L357.77 353.746C357.587 353.746 357.411 353.819 357.282 353.948C357.152 354.077 357.08 354.253 357.08 354.436C357.077 354.528 357.092 354.619 357.126 354.705C357.159 354.791 357.21 354.869 357.274 354.934C357.339 355 357.416 355.052 357.501 355.087C357.586 355.121 357.678 355.139 357.77 355.137L385.244 355.393C385.338 355.397 385.432 355.383 385.52 355.35C385.608 355.318 385.689 355.268 385.758 355.204C385.826 355.139 385.881 355.062 385.919 354.976C385.957 354.89 385.977 354.797 385.979 354.703H385.934ZM349.068 395.787C349.123 395.664 353.808 382.756 367.896 379.674C368.077 379.634 368.236 379.523 368.336 379.367C368.436 379.211 368.47 379.021 368.43 378.839C368.385 378.661 368.273 378.508 368.118 378.41C367.962 378.313 367.775 378.279 367.596 378.316C352.74 381.565 347.81 395.197 347.755 395.331C347.697 395.506 347.711 395.697 347.792 395.863C347.873 396.03 348.015 396.158 348.189 396.221H348.411C348.559 396.234 348.707 396.198 348.834 396.12C348.96 396.042 349.058 395.925 349.112 395.787H349.068Z" fill="black"/>
<path d="M370.366 386.373H338.864V392.894H341.612L347.298 428.469H361.931L367.618 392.894H370.366V386.373Z" fill="#599C40"/>
<path opacity="0.3" d="M370.366 386.373H338.864V392.894H341.612L347.298 428.469H361.931L367.618 392.894H370.366V386.373Z" fill="white"/>
<path d="M86.741 189.188L50.0971 177.226L46.8367 168.613L39.3922 168.379L25.8831 165.82L27.5077 168.613L44.511 180.953L48.7062 183.046L87.0303 203.064L86.741 189.188Z" fill="white" stroke="#263238" stroke-width="1.00396" stroke-miterlimit="10"/>
<path d="M46.8367 168.613L43.3426 166.521L36.3655 169.08L37.5228 170.471L46.8367 168.613Z" fill="white" stroke="#263238" stroke-width="1.00396" stroke-linejoin="round"/>
<path d="M86.741 189.188L50.0971 177.226L46.8367 168.613L39.3922 168.379L25.8831 165.82L27.5077 168.613L44.511 180.953L48.7062 183.046L87.0303 203.064L86.741 189.188Z" fill="white"/>
<mask id="mask0_9393_250" style="mask-type:luminance" maskUnits="userSpaceOnUse" x="25" y="165" width="63" height="39">
<path d="M86.741 189.188L50.0971 177.226L46.8367 168.613L39.3922 168.379L25.8831 165.82L27.5077 168.613L44.511 180.953L48.7062 183.046L87.0303 203.064L86.741 189.188Z" fill="white"/>
</mask>
<g mask="url(#mask0_9393_250)">
<path opacity="0.5" d="M86.741 189.188L50.0971 177.226L46.8367 168.613L39.3922 168.379L25.8831 165.82L27.5077 168.613L44.511 180.953L48.7062 183.046L87.0303 203.064L86.741 189.188Z" fill="#599C40" stroke="#263238" stroke-width="1.00396" stroke-miterlimit="10"/>
</g>
<path d="M86.741 189.188L50.0971 177.226L46.8367 168.613L39.3922 168.379L25.8831 165.82L27.5077 168.613L44.511 180.953L48.7062 183.046L87.0303 203.064L86.741 189.188Z" stroke="#263238" stroke-width="1.00396" stroke-miterlimit="10"/>
<path d="M46.8367 168.613L43.3426 166.521L36.3655 169.08L37.5228 170.471L46.8367 168.613Z" fill="white"/>
<mask id="mask1_9393_250" style="mask-type:luminance" maskUnits="userSpaceOnUse" x="36" y="166" width="11" height="5">
<path d="M46.8367 168.613L43.3426 166.521L36.3655 169.08L37.5228 170.471L46.8367 168.613Z" fill="white"/>
</mask>
<g mask="url(#mask1_9393_250)">
<path opacity="0.5" d="M46.8367 168.613L43.3426 166.521L36.3655 169.08L37.5228 170.471L46.8367 168.613Z" fill="#599C40" stroke="#263238" stroke-width="1.00396" stroke-linejoin="round"/>
</g>
<path d="M46.8367 168.613L43.3426 166.521L36.3655 169.08L37.5228 170.471L46.8367 168.613Z" stroke="#263238" stroke-width="1.00396" stroke-linejoin="round"/>
<path d="M94.5193 111.549C94.5193 111.549 93.9518 116.557 95.3651 119.773C96.7783 122.989 104.623 133.883 104.623 133.883L89.9792 145.623C89.9792 145.623 83.9034 133.382 82.7461 131.401C81.5888 129.421 80.1979 120.897 83.9702 114.788C87.7425 108.678 93.1729 107.032 94.5193 111.549Z" fill="white"/>
<mask id="mask2_9393_250" style="mask-type:luminance" maskUnits="userSpaceOnUse" x="81" y="108" width="24" height="38">
<path d="M94.5193 111.549C94.5193 111.549 93.9518 116.557 95.3651 119.773C96.7783 122.989 104.623 133.883 104.623 133.883L89.9792 145.623C89.9792 145.623 83.9034 133.382 82.7461 131.401C81.5888 129.421 80.1979 120.897 83.9702 114.788C87.7425 108.678 93.1729 107.032 94.5193 111.549Z" fill="white"/>
</mask>
<g mask="url(#mask2_9393_250)">
<g style="mix-blend-mode:multiply" opacity="0.5">
<path d="M86.9969 127.64L93.3509 140.816L89.9681 145.634L83.5807 134.228L86.9969 127.64Z" fill="#599C40"/>
</g>
</g>
<path d="M94.5193 111.549C94.5193 111.549 93.9518 116.557 95.3651 119.773C96.7783 122.989 104.623 133.883 104.623 133.883L89.9792 145.623C89.9792 145.623 83.9034 133.382 82.7461 131.401C81.5888 129.421 80.1979 120.897 83.9702 114.788C87.7425 108.678 93.1729 107.032 94.5193 111.549Z" stroke="#263238" stroke-width="1.00396" stroke-miterlimit="10"/>
<path d="M99.0595 102.38C98.1581 96.8162 91.7819 85.4992 81.6667 85.9332C75.1013 86.2225 72.03 87.5467 69.1813 89.1603C66.8592 90.5284 64.6948 92.1479 62.7272 93.9897C57.7865 99.9209 56.0505 101.546 57.0075 106.086C56.929 107.897 57.2127 109.705 57.8421 111.405C59.3555 115.444 60.3904 118.081 61.7034 120.007C61.3028 121.887 60.2568 126.85 60.2012 127.985C60.1456 129.12 63.5395 128.33 65.2532 127.896C68.4358 135.018 74.2667 139.959 76.0806 140.526C79.2409 141.517 84.2372 136.32 86.8857 132.292C89.5341 128.263 87.5311 123.734 87.5422 121.932C87.5533 120.129 93.4956 116.167 95.6989 114.91C97.9022 113.653 99.9497 107.933 99.0595 102.38Z" fill="white"/>
<mask id="mask3_9393_250" style="mask-type:luminance" maskUnits="userSpaceOnUse" x="56" y="85" width="44" height="56">
<path d="M99.0595 102.38C98.1581 96.8162 91.7819 85.4992 81.6667 85.9332C75.1013 86.2225 72.03 87.5467 69.1813 89.1603C66.8592 90.5284 64.6948 92.1479 62.7272 93.9897C57.7865 99.9209 56.0505 101.546 57.0075 106.086C56.929 107.897 57.2127 109.705 57.8421 111.405C59.3555 115.444 60.3904 118.081 61.7034 120.007C61.3028 121.887 60.2568 126.85 60.2012 127.985C60.1456 129.12 63.5395 128.33 65.2532 127.896C68.4358 135.018 74.2667 139.959 76.0806 140.526C79.2409 141.517 84.2372 136.32 86.8857 132.292C89.5341 128.263 87.5311 123.734 87.5422 121.932C87.5533 120.129 93.4956 116.167 95.6989 114.91C97.9022 113.653 99.9497 107.933 99.0595 102.38Z" fill="white"/>
</mask>
<g mask="url(#mask3_9393_250)">
<g style="mix-blend-mode:multiply" opacity="0.5">
<path d="M57.052 106.086C56.9735 107.897 57.2573 109.705 57.8866 111.405C59.4 115.444 60.4349 118.081 61.748 120.007C61.3474 121.887 60.3014 126.85 60.2457 127.985C60.1901 129.12 63.5841 128.33 65.2977 127.896C68.4803 135.018 74.3112 139.959 76.1251 140.526C79.2854 141.517 84.2818 136.32 86.9302 132.292C87.5918 131.286 88.0214 130.146 88.1876 128.953C88.043 128.43 87.9428 128.108 87.9428 128.108C87.9428 128.108 86.4517 133.838 83.4917 133.093C80.5317 132.347 76.0027 126.416 73.4767 124.369C70.9507 122.321 71.9855 119.628 71.4848 116.579C70.984 113.53 63.5062 110.848 63.0054 109.101C62.5047 107.354 64.2517 100.121 64.2517 100.121C64.2517 100.121 67.0893 96.3377 66.4773 97.8956C66.0447 99.2464 65.8878 100.67 66.0159 102.083C66.1439 103.496 66.5544 104.868 67.2228 106.119C67.6919 107.106 68.436 107.937 69.3658 108.511C70.2955 109.086 71.3714 109.379 72.464 109.357L75.1792 95.9037L69.4484 91.1633L62.7717 93.9452C57.7865 99.9209 56.0839 101.546 57.052 106.086Z" fill="#599C40"/>
</g>
</g>
<path d="M99.0595 102.38C98.1581 96.8162 91.7819 85.4992 81.6667 85.9332C75.1013 86.2225 72.03 87.5467 69.1813 89.1603C66.8592 90.5284 64.6948 92.1479 62.7272 93.9897C57.7865 99.9209 56.0505 101.546 57.0075 106.086C56.929 107.897 57.2127 109.705 57.8421 111.405C59.3555 115.444 60.3904 118.081 61.7034 120.007C61.3028 121.887 60.2568 126.85 60.2012 127.985C60.1456 129.12 63.5395 128.33 65.2532 127.896C68.4358 135.018 74.2667 139.959 76.0806 140.526C79.2409 141.517 84.2372 136.32 86.8857 132.292C89.5341 128.263 87.5311 123.734 87.5422 121.932C87.5533 120.129 93.4956 116.167 95.6989 114.91C97.9022 113.653 99.9497 107.933 99.0595 102.38Z" stroke="#263238" stroke-miterlimit="10"/>
<path d="M63.0833 116.646L64.1961 119.828C64.1961 119.828 66.5886 120.619 69.5041 117.436" stroke="#263238" stroke-miterlimit="10" stroke-linecap="round"/>
<path d="M71.3068 131.513C71.3068 131.513 73.9552 131.246 75.0235 127.529" stroke="#263238" stroke-miterlimit="10" stroke-linecap="round"/>
<path d="M61.225 113.986C61.225 113.986 62.015 111.594 66.7889 111.594" stroke="#263238" stroke-miterlimit="10" stroke-linecap="round"/>
<path d="M85.695 81.5043C82.2262 81.0055 78.7281 80.7379 75.2237 80.7031C75.2237 80.7031 64.7414 74.6607 54.6707 81.1037C44.6 87.5467 49.4406 98.8303 49.4406 101.646C49.4406 104.461 46.2136 104.472 48.2277 108.1C50.2418 111.727 57.0521 109.724 57.0521 109.724C57.124 108.356 57.4856 107.019 58.1129 105.801C58.7401 104.583 59.6188 103.512 60.6908 102.658C64.3185 99.843 67.2117 99.2309 68.4135 100.043C68.4135 100.043 67.6123 106.086 68.8141 108.5C68.8141 108.5 72.8424 110.515 74.0553 110.515C75.2683 110.515 73.2653 112.217 77.2824 113.73C78.0143 113.993 78.7971 114.083 79.5694 113.992C80.3417 113.901 81.0825 113.633 81.7335 113.207C82.3233 110.759 83.6141 107.076 86.0177 107.933C89.5452 109.19 92.7612 117.87 87.9873 120.83C93.7293 121.876 100.684 111.716 101.096 102.458C101.508 93.1997 91.6595 82.5504 85.695 81.5043Z" fill="#263238"/>
<path d="M68.5916 96.0706C68.5916 96.0706 71.5516 94.4793 75.1792 97.8844C78.8069 101.29 85.8619 105.841 95.2093 103.337" stroke="white" stroke-width="0.5" stroke-linecap="round" stroke-linejoin="round"/>
<path d="M68.1798 93.3444C68.1798 93.3444 70.2162 90.1618 73.6213 90.1618C77.0264 90.1618 84.9828 94.9356 91.3368 94.9356" stroke="white" stroke-width="0.5" stroke-linecap="round" stroke-linejoin="round"/>
<path d="M65.8653 99.4757C65.8653 99.4757 62.0039 94.713 58.3763 98.5744C54.7486 102.436 57.0521 106.086 57.0521 106.086" stroke="white" stroke-width="0.5" stroke-linecap="round" stroke-linejoin="round"/>
<path d="M50.431 102.658C52.6438 100.663 54.0193 97.9037 54.2812 94.9356C54.7375 89.9392 61.5588 85.6216 65.8653 89.7167" stroke="white" stroke-width="0.5" stroke-linecap="round" stroke-linejoin="round"/>
<path d="M57.4638 84.4866C57.4638 84.4866 64.2851 77.899 69.9603 86.3005" stroke="white" stroke-width="0.5" stroke-linecap="round" stroke-linejoin="round"/>
<path d="M112.98 408.383C112.98 408.383 117.176 414.904 116.708 419.099L116.252 423.295C116.252 423.295 100.862 427.512 97.6017 427.512C94.3413 427.512 77.0821 425.876 77.0821 425.876L76.3365 422.916C76.2843 422.698 76.3089 422.468 76.4062 422.265C76.5034 422.063 76.6674 421.9 76.8707 421.804L92.2604 414.626L97.1121 409.318L112.98 408.383Z" fill="white" stroke="#263238" stroke-width="1.00396" stroke-miterlimit="10"/>
<path d="M99.9386 424.229C104.111 424.552 112.034 422.004 116.63 420.379L116.308 423.295C116.308 423.295 100.862 427.512 97.6017 427.512C94.3413 427.512 77.0821 425.876 77.0821 425.876L76.5479 423.762C79.3076 423.773 94.4192 423.807 99.9386 424.229Z" fill="#599C40" stroke="#263238" stroke-width="1.00396" stroke-miterlimit="10"/>
<path d="M92.2827 414.626L69.8824 424.374C69.8824 424.374 67.9684 429.17 69.8824 430.127C71.7964 431.084 113.526 430.127 113.526 430.127C113.526 430.127 116.408 422.549 111.856 417.464C107.305 412.378 92.2827 414.626 92.2827 414.626Z" fill="white" stroke="#263238" stroke-width="1.00396" stroke-miterlimit="10"/>
<path d="M113.526 430.127C113.526 430.127 71.7964 431.084 69.8824 430.127C68.9588 429.66 68.9254 428.313 69.1368 427.034H114.26C114.113 428.086 113.867 429.121 113.526 430.127Z" fill="#599C40" stroke="#263238" stroke-width="1.00396" stroke-miterlimit="10"/>
<path d="M81.689 245.25C81.689 245.25 75.8358 271.189 73.6213 287.413C71.4069 303.637 70.105 336.142 70.5723 339.87C71.0397 343.597 94.3413 406.058 94.3413 406.058L96.667 411.622L112.98 408.361C112.98 408.361 105.525 384.592 102.732 371.539C99.9386 358.486 93.8294 337.043 93.8294 333.315C93.8294 329.588 108.296 258.392 109.33 253.718C110.365 249.045 115.061 241.867 115.061 241.867L83.8255 241.233L81.689 245.25Z" fill="#599C40" stroke="#263238" stroke-width="1.00396" stroke-miterlimit="10"/>
<path d="M81.689 245.25C81.689 245.25 78.2616 268.941 79.6749 285.41C81.0881 301.879 84.126 336.943 84.126 342.162C84.126 347.381 92.5497 378.55 93.0282 388.342C93.7738 402.486 92.7278 409.485 92.7278 409.485L92.227 414.615C92.227 414.615 102.053 416.017 104.201 416.629C106.681 417.268 109.241 417.546 111.801 417.453C111.801 417.453 115.373 401.729 115.373 388.331C115.373 374.933 112.402 347.359 110.922 336.186C109.442 325.014 114.104 281.916 116.753 273.871C119.401 265.825 125.188 248.789 121.293 240.087C117.398 231.385 81.689 245.25 81.689 245.25Z" fill="#599C40" stroke="#263238" stroke-width="1.00396" stroke-miterlimit="10"/>
<path d="M125.622 235.724L125.265 246.318C125.265 246.318 118.923 247.576 110.376 249.056C103.321 250.28 85.606 248.733 79.6415 248.154C79.0979 248.106 78.5954 247.845 78.2432 247.428C77.891 247.012 77.7177 246.473 77.7609 245.929L78.3395 236.359L125.622 235.724Z" fill="#263238"/>
<path d="M100.829 130.122C100.829 130.122 90.8138 140.949 87.0415 147.681C83.2691 154.414 81.778 164.729 80.3648 172.852C78.9515 180.976 82.7795 200.049 81.7001 208.806L78.2839 236.392C78.2839 236.392 77.5494 238.262 80.0087 240.309C82.4679 242.357 94.4748 243.102 105.324 243.647C109.286 243.848 121.115 241.3 123.051 241.177C125.388 241.032 125.466 238.061 125.566 235.725C126.033 224.741 128.014 195.464 129.316 182.712C131.998 156.706 117.32 131.602 100.829 130.122Z" fill="white" stroke="#263238" stroke-width="1.00396" stroke-miterlimit="10"/>
<g style="mix-blend-mode:multiply">
<path d="M128.092 197.501C128.537 191.725 128.982 186.484 129.372 182.712C129.483 181.599 129.55 180.486 129.605 179.373L102.999 183.824L80.1422 176.035C80.1447 180.764 80.4122 185.49 80.9434 190.19L103.366 196.466L128.092 197.501Z" fill="#599C40"/>
</g>
<g style="mix-blend-mode:multiply">
<path d="M99.8384 131.212C98.325 132.893 95.3205 136.309 92.4607 139.936L109.353 157.107L114.917 154.881L99.8384 131.212Z" fill="#599C40"/>
</g>
<path d="M100.829 130.122C100.829 130.122 90.8138 140.949 87.0415 147.681C85.9229 149.727 85.0168 151.883 84.3374 154.113L104.479 130.845C103.289 130.485 102.066 130.242 100.829 130.122Z" fill="#263238"/>
<g style="mix-blend-mode:multiply">
<path d="M81.1437 168.468L102.999 175.657L129.539 172.608C129.123 165.996 127.654 159.494 125.188 153.345L103.789 161.925L84.6601 153.256C83.096 158.228 81.9203 163.314 81.1437 168.468Z" fill="#599C40"/>
</g>
<g style="mix-blend-mode:multiply">
<path d="M118.767 224.741C107.682 226.603 96.3083 225.673 85.6727 222.037L80.3425 220.212L78.6845 233.566L84.7603 235.268C96.3106 238.498 108.383 239.428 120.291 238.006L125.199 237.416C125.454 236.875 125.598 236.289 125.622 235.691C125.755 232.72 125.989 228.402 126.289 223.451L118.767 224.741Z" fill="#599C40"/>
</g>
<g style="mix-blend-mode:multiply">
<path d="M121.738 206.559C110.653 208.427 99.2763 207.494 88.6439 203.843L81.8559 201.518C82.0243 203.942 81.9908 206.376 81.7557 208.795L80.9657 215.216L87.7314 217.108C99.2772 220.341 111.346 221.274 123.251 219.856L126.59 219.456C126.868 215.005 127.191 210.264 127.536 205.579L121.738 206.559Z" fill="#599C40"/>
</g>
<path d="M17.3383 159.501L38.8543 176.801L39.7817 175.647L18.2657 158.348L17.3383 159.501Z" fill="#263238"/>
<path d="M111.189 142.129C111.189 142.129 119.078 147.503 119.256 160.2C119.334 165.764 118.756 170.961 117.476 180.074C116.196 189.188 108.251 218.866 102.064 222.471C95.8769 226.077 86.2736 219.267 86.2736 219.267L39.8262 188.431L28.5983 179.362L23.0344 168.858L24.7814 165.519L38.4797 176.024L31.102 169.203L32.5486 167.366L35.2193 169.225L43.0088 172.14L44.7113 183.268L47.1149 184.915L91.5482 201.15C91.5482 201.15 90.9918 177.237 91.4036 172.663C91.8153 168.09 92.3828 156.595 97.279 148.26" fill="white"/>
<mask id="mask4_9393_250" style="mask-type:luminance" maskUnits="userSpaceOnUse" x="23" y="142" width="97" height="82">
<path d="M111.189 142.129C111.189 142.129 119.078 147.503 119.256 160.2C119.334 165.764 118.756 170.961 117.476 180.074C116.196 189.188 108.251 218.866 102.064 222.471C95.8769 226.077 86.2736 219.267 86.2736 219.267L39.8262 188.431L28.5983 179.362L23.0344 168.858L24.7814 165.519L38.4797 176.024L31.102 169.203L32.5486 167.366L35.2193 169.225L43.0088 172.14L44.7113 183.268L47.1149 184.915L91.5482 201.15C91.5482 201.15 90.9918 177.237 91.4036 172.663C91.8153 168.09 92.3828 156.595 97.279 148.26" fill="white"/>
</mask>
<g mask="url(#mask4_9393_250)">
<g style="mix-blend-mode:multiply" opacity="0.5">
<path d="M91.2366 183.079C91.2366 191.336 91.5148 201.15 91.5148 201.15L47.126 184.982L44.7224 183.335L43.0199 172.207L35.2304 169.292L32.5709 167.4L31.1243 169.236L38.4797 176.024L24.7814 165.519L23.1234 168.802L28.6873 179.307L39.9152 188.431L42.7417 190.312L104.111 210.086L91.2366 183.079Z" fill="#599C40"/>
</g>
</g>
<path d="M111.189 142.129C111.189 142.129 119.078 147.503 119.256 160.2C119.334 165.764 118.756 170.961 117.476 180.074C116.196 189.188 108.251 218.866 102.064 222.471C95.8769 226.077 86.2736 219.267 86.2736 219.267L39.8262 188.431L28.5983 179.362L23.0344 168.858L24.7814 165.519L38.4797 176.024L31.102 169.203L32.5486 167.366L35.2193 169.225L43.0088 172.14L44.7113 183.268L47.1149 184.915L91.5482 201.15C91.5482 201.15 90.9918 177.237 91.4036 172.663C91.8153 168.09 92.3828 156.595 97.279 148.26" stroke="#263238" stroke-width="1.00396" stroke-miterlimit="10"/>
<path d="M91.5482 201.15L108.507 213.391L112.902 205.602C112.902 205.602 115.94 203.209 116.385 201.406C116.831 199.604 116.263 196.677 116.719 194.874C117.176 193.072 119.446 191.38 119.657 187.018C119.868 182.656 119.657 179.017 119.657 179.017C119.657 179.017 123.329 163.917 122.929 157.351C122.528 150.786 116.196 139.18 111.122 138.924C106.048 138.668 99.449 139.436 94.3302 147.181C89.2114 154.926 90.2574 177.537 89.4562 178.951C88.655 180.364 89.7678 187.341 89.7678 187.341C89.323 187.673 88.9541 188.095 88.6855 188.581C88.4168 189.066 88.2547 189.603 88.2099 190.156C88.1209 191.97 90.0794 196.432 90.0794 196.432L91.5482 201.15Z" fill="white" stroke="#263238" stroke-width="1.00396" stroke-miterlimit="10"/>
<g style="mix-blend-mode:multiply">
<path d="M89.9013 173.142C89.9362 175.084 89.7909 177.024 89.4673 178.939C88.7551 180.208 89.5675 185.939 89.7455 187.107C99.284 190.07 109.37 190.831 119.245 189.333C119.457 188.559 119.584 187.764 119.624 186.963C119.846 182.612 119.624 178.962 119.624 178.962C119.624 178.962 119.946 177.615 120.391 175.568C110.164 176.218 99.8969 175.401 89.9013 173.142Z" fill="#599C40"/>
</g>
<g style="mix-blend-mode:multiply">
<path d="M93.6403 148.416C92.049 151.61 91.1588 156.406 90.6469 161.268C100.749 165.124 111.64 166.449 122.372 165.13C122.8 162.556 122.99 159.949 122.94 157.34C122.747 155.279 122.26 153.255 121.493 151.331C112.123 151.55 102.762 150.57 93.6403 148.416Z" fill="#599C40"/>
</g>
<path d="M90.0793 196.555L91.5148 201.15L108.474 213.391L112.869 205.602C112.869 205.602 115.907 203.209 116.352 201.406C116.431 201.093 116.48 200.772 116.497 200.449C107.56 200.295 98.6805 198.986 90.0793 196.555Z" fill="#263238"/>
<path d="M102.353 416.484C102.353 416.484 102.732 406.848 104.579 392.76C106.426 378.672 101.986 358.664 101.241 355.326C100.495 351.988 101.619 344.577 100.873 341.973C100.128 339.369 96.5224 328.263 98.6478 315.377C100.773 302.491 102.498 268.429 102.498 268.429C102.498 268.429 97.1455 264.078 95.5765 258.414C94.0075 252.75 95.2093 250.97 95.2093 250.97" stroke="#263238" stroke-width="1.00396" stroke-miterlimit="10"/>
<path d="M104.835 251.493L102.776 262.887" stroke="#263238" stroke-width="1.00396" stroke-miterlimit="10"/>
</svg>
