<svg width="26" height="27" viewBox="0 0 26 27" fill="none" xmlns="http://www.w3.org/2000/svg">
<path d="M12.167 2.83333C12.167 3.18696 12.3074 3.52609 12.5575 3.77614C12.8075 4.02619 13.1467 4.16667 13.5003 4.16667C13.8539 4.16667 14.1931 4.02619 14.4431 3.77614C14.6932 3.52609 14.8336 3.18696 14.8336 2.83333C14.8336 2.47971 14.6932 2.14057 14.4431 1.89052C14.1931 1.64048 13.8539 1.5 13.5003 1.5C13.1467 1.5 12.8075 1.64048 12.5575 1.89052C12.3074 2.14057 12.167 2.47971 12.167 2.83333ZM1.50029 20.1667L8.16696 21.5L9.16696 19.5M16.167 25.5V20.1667L10.8336 16.1667L12.167 8.16667" fill="#2EAD00"/>
<path d="M1.50029 20.1667L8.16696 21.5L9.16696 19.5M16.167 25.5V20.1667L10.8336 16.1667L12.167 8.16667M12.167 2.83333C12.167 3.18696 12.3074 3.52609 12.5575 3.77614C12.8075 4.02619 13.1467 4.16667 13.5003 4.16667C13.8539 4.16667 14.1931 4.02619 14.4431 3.77614C14.6932 3.52609 14.8336 3.18696 14.8336 2.83333C14.8336 2.47971 14.6932 2.14057 14.4431 1.89052C14.1931 1.64048 13.8539 1.5 13.5003 1.5C13.1467 1.5 12.8075 1.64048 12.5575 1.89052C12.3074 2.14057 12.167 2.47971 12.167 2.83333Z" stroke="#2EAD00" stroke-width="3" stroke-linecap="round" stroke-linejoin="round"/>
<path d="M5.50029 13.4999L5.50029 9.49993L12.167 8.1666L16.167 12.1666L20.167 13.4999" fill="#2EAD00"/>
<path d="M5.50029 13.4999L5.50029 9.49993L12.167 8.1666L16.167 12.1666L20.167 13.4999" stroke="#2EAD00" stroke-width="3" stroke-linecap="round" stroke-linejoin="round"/>
<path d="M23.5003 24.1667C23.6771 24.1667 23.8467 24.0964 23.9717 23.9714C24.0967 23.8464 24.167 23.6768 24.167 23.5C24.167 23.3232 24.0967 23.1536 23.9717 23.0286C23.8467 22.9036 23.6771 22.8333 23.5003 22.8333C23.3235 22.8333 23.1539 22.9036 23.0289 23.0286C22.9039 23.1536 22.8336 23.3232 22.8336 23.5C22.8336 23.6768 22.9039 23.8464 23.0289 23.9714C23.1539 24.0964 23.3235 24.1667 23.5003 24.1667Z" fill="#2EAD00" stroke="#2EAD00" stroke-width="3" stroke-linecap="round" stroke-linejoin="round"/>
</svg>
