<svg width="20" height="22" viewBox="0 0 20 22" fill="none" xmlns="http://www.w3.org/2000/svg">
<path fill-rule="evenodd" clip-rule="evenodd" d="M8.27856 0.374337C8.72367 0.0829559 9.26698 0 9.75 0C10.233 0 10.7763 0.0829559 11.2214 0.374337C11.7152 0.697591 12 1.22083 12 1.875C12 2.42284 11.8032 2.993 11.4963 3.45184C14.7145 4.20909 17.1597 7.01398 17.3406 10.4516C17.3497 10.6241 17.3564 10.7893 17.3629 10.9485C17.3851 11.49 17.4044 11.9615 17.5025 12.4133C17.6198 12.9531 17.8367 13.3775 18.2779 13.7084C19.0472 14.2854 19.5 15.191 19.5 16.1527C19.5 17.534 18.4128 18.75 16.95 18.75H13.6798C13.3287 20.6006 11.7028 22 9.75 22C7.79721 22 6.17125 20.6006 5.8202 18.75H2.55C1.08719 18.75 0 17.534 0 16.1527C0 15.191 0.452782 14.2854 1.22213 13.7084C1.66329 13.3775 1.88025 12.9531 1.99749 12.4133C2.09561 11.9615 2.1149 11.49 2.13705 10.9485C2.14356 10.7894 2.15032 10.6241 2.1594 10.4516C2.34033 7.01397 4.78554 4.20909 8.00368 3.45184C7.69675 2.993 7.5 2.42284 7.5 1.875C7.5 1.22083 7.78476 0.697591 8.27856 0.374337ZM7.89538 18.75C8.19207 19.483 8.91066 20 9.75 20C10.5893 20 11.3079 19.483 11.6046 18.75H7.89538Z" fill="#2EAD00"/>
</svg>
