<svg width="17" height="18" viewBox="0 0 17 18" fill="none" xmlns="http://www.w3.org/2000/svg">
<path fill-rule="evenodd" clip-rule="evenodd" d="M8.36828 0C4.63953 0 1.61331 3.01329 1.61328 6.73464C1.61321 7.60023 1.55514 8.25354 1.15709 8.84072C1.10174 8.92119 1.0283 9.02197 0.948055 9.13209C0.80868 9.32336 0.648774 9.5428 0.527482 9.73285C0.31341 10.0683 0.104264 10.4728 0.0323651 10.9441C-0.202209 12.4818 0.879136 13.4774 1.95605 13.9235C2.75778 14.2557 3.62406 14.5176 4.52762 14.7093C4.99626 16.3587 6.54694 17.551 8.3675 17.551C10.1879 17.551 11.7385 16.3588 12.2073 14.7097C13.1114 14.5179 13.9783 14.2559 14.7805 13.9235C15.8574 13.4774 16.9388 12.4818 16.7042 10.9441C16.6323 10.4728 16.4232 10.0683 16.2091 9.73285C16.0878 9.5428 15.9279 9.32336 15.7885 9.1321C15.7083 9.02202 15.6349 8.92124 15.5795 8.84079C15.1814 8.25358 15.1234 7.60034 15.1233 6.73469C15.1233 3.01331 12.0971 0 8.36828 0ZM2.83777 6.73469C2.83777 3.6934 5.31196 1.22449 8.36828 1.22449C11.4246 1.22449 13.8988 3.69345 13.8988 6.73475C13.8989 7.61836 13.9425 8.60953 14.5674 9.52996L14.5693 9.53283C14.6721 9.68232 14.7623 9.80487 14.8473 9.92038C14.9605 10.0742 15.0646 10.2157 15.1769 10.3916C15.351 10.6644 15.4589 10.9007 15.4937 11.1288C15.6063 11.867 15.1355 12.4511 14.3119 12.7923C10.8188 14.2393 5.91772 14.2393 2.42469 12.7923C1.6011 12.4511 1.13024 11.867 1.24285 11.1288C1.27764 10.9007 1.3856 10.6644 1.55967 10.3916C1.67196 10.2157 1.77602 10.0743 1.88926 9.92041C1.97415 9.80506 2.06466 9.68208 2.16723 9.53284L2.16919 9.52996C2.79412 8.60953 2.8377 7.61831 2.83777 6.73469ZM10.787 14.9497C9.19635 15.1529 7.53847 15.1528 5.94788 14.9495C6.41441 15.7648 7.3173 16.3265 8.3675 16.3265C9.4176 16.3265 10.3204 15.7649 10.787 14.9497Z" fill="#2EAD00"/>
</svg>
