<svg width="18" height="22" viewBox="0 0 18 22" fill="none" xmlns="http://www.w3.org/2000/svg">
<path d="M8.75 12.5C9.16421 12.5 9.5 12.8358 9.5 13.25V15.25C9.5 15.6642 9.16421 16 8.75 16C8.33579 16 8 15.6642 8 15.25V13.25C8 12.8358 8.33579 12.5 8.75 12.5Z" fill="#777777"/>
<path fill-rule="evenodd" clip-rule="evenodd" d="M3.5 7.20909L3.5 5.25C3.5 2.3505 5.8505 0 8.75 0C11.6495 0 14 2.3505 14 5.25V7.20909C15.6908 7.61285 16.989 9.04844 17.2255 10.8052C17.3736 11.9056 17.5 13.0618 17.5 14.25C17.5 15.4382 17.3736 16.5944 17.2255 17.6948C16.9539 19.7118 15.2828 21.3055 13.2248 21.4001C11.7964 21.4658 10.3458 21.5 8.75 21.5C7.15416 21.5 5.70364 21.4658 4.27522 21.4001C2.21716 21.3055 0.546088 19.7118 0.274518 17.6948C0.126363 16.5944 0 15.4382 0 14.25C0 13.0618 0.126363 11.9056 0.274518 10.8052C0.511044 9.04844 1.80919 7.61285 3.5 7.20909ZM5 5.25C5 3.17893 6.67893 1.5 8.75 1.5C10.8211 1.5 12.5 3.17893 12.5 5.25V7.06937C11.3032 7.02365 10.0769 7 8.75 7C7.42315 7 6.19676 7.02365 5 7.06937L5 5.25ZM8.75 8.5C7.17645 8.5 5.7489 8.53372 4.3441 8.5983C3.0351 8.65848 1.93929 9.68188 1.7611 11.0053C1.61573 12.0851 1.5 13.1629 1.5 14.25C1.5 15.3371 1.61573 16.4149 1.7611 17.4947C1.93929 18.8181 3.0351 19.8415 4.3441 19.9017C5.7489 19.9663 7.17645 20 8.75 20C10.3236 20 11.7511 19.9663 13.1559 19.9017C14.4649 19.8415 15.5607 18.8181 15.7389 17.4947C15.8843 16.4149 16 15.3371 16 14.25C16 13.1629 15.8843 12.0851 15.7389 11.0053C15.5607 9.68188 14.4649 8.65848 13.1559 8.5983C11.7511 8.53372 10.3236 8.5 8.75 8.5Z" fill="#777777"/>
</svg>
