<svg width="29" height="29" viewBox="0 0 29 29" fill="none" xmlns="http://www.w3.org/2000/svg">
<path d="M5.42302 0.0487568C6.1786 0.204923 6.78033 0.712575 7.15418 1.38328L8.34513 3.51988C8.78381 4.30682 9.15297 4.96906 9.39406 5.54476C9.6498 6.15544 9.80169 6.75766 9.73225 7.42347C9.66282 8.08928 9.38995 8.6472 9.01372 9.19199C8.65904 9.70556 8.16118 10.2774 7.56958 10.9569L5.8189 12.9678C5.50518 13.3282 5.34832 13.5083 5.33399 13.7335C5.31965 13.9587 5.44821 14.1511 5.70534 14.5358C7.89678 17.8145 10.8503 20.7691 14.1318 22.9624C14.5165 23.2195 14.7088 23.3481 14.934 23.3338C15.1592 23.3194 15.3394 23.1626 15.6998 22.8489L17.7108 21.0981C18.3903 20.5065 18.9621 20.0086 19.4757 19.654C20.0205 19.2777 20.5784 19.0049 21.2442 18.9354C21.91 18.866 22.5122 19.0179 23.1229 19.2736C23.6985 19.5147 24.3608 19.8838 25.1476 20.3224L27.2844 21.5135C27.9551 21.8873 28.4627 22.4891 28.6189 23.2447C28.7767 24.0081 28.5439 24.7755 28.0299 25.4062C26.1647 27.6947 23.1763 29.1518 20.0414 28.5194C18.1143 28.1307 16.213 27.4831 13.9134 26.1643C9.29294 23.5144 5.15017 19.3694 2.5034 14.7543C1.18458 12.4547 0.536959 10.5533 0.148235 8.62632C-0.48416 5.49136 0.972953 2.50299 3.26144 0.637778C3.89215 0.123722 4.65955 -0.109039 5.42302 0.0487568Z" fill="#2EAD00"/>
</svg>
