<svg width="29" height="24" viewBox="0 0 29 24" fill="none" xmlns="http://www.w3.org/2000/svg">
<path fill-rule="evenodd" clip-rule="evenodd" d="M6.25623 1.7528e-05L22.4104 1.7528e-05C23.6016 -3.6795e-05 24.6089 -8.27312e-05 25.4113 0.1232C26.2748 0.255889 27.039 0.549371 27.6382 1.23414C28.2206 1.8997 28.4541 2.71577 28.5622 3.63436C28.6667 4.52286 28.6667 5.64913 28.6667 7.03204L28.6667 16.3013C28.6667 17.6843 28.6667 18.8105 28.5622 19.699C28.4541 20.6176 28.2206 21.4337 27.6382 22.0992C27.039 22.784 26.2748 23.0775 25.4113 23.2102C24.6089 23.3335 23.6017 23.3334 22.4105 23.3334L6.2562 23.3334C5.065 23.3334 4.05776 23.3335 3.25541 23.2102C2.39185 23.0775 1.62765 22.784 1.02847 22.0992C0.446111 21.4337 0.212545 20.6176 0.104482 19.699C-4.15345e-05 18.8105 -2.2585e-05 17.6843 6.91786e-07 16.3014L6.91786e-07 7.03202C-2.2585e-05 5.64913 -4.15444e-05 4.52286 0.104482 3.63436C0.212545 2.71577 0.446111 1.8997 1.02847 1.23414C1.62765 0.549371 2.39185 0.255889 3.25541 0.1232C4.05775 -8.27312e-05 5.06504 -3.6795e-05 6.25623 1.7528e-05ZM2 8.66669L2 14.6667L4.33333 14.6667C4.51743 14.6667 4.66667 14.5174 4.66667 14.3334L4.66667 9.00002C4.66667 8.81592 4.51743 8.66669 4.33333 8.66669L2 8.66669ZM2.00014 16.6667H4.33333C5.622 16.6667 6.66667 15.622 6.66667 14.3334L6.66667 9.00002C6.66667 7.71135 5.622 6.66668 4.33333 6.66668H2.00014C2.00122 5.43301 2.01063 4.54941 2.09078 3.86803C2.17798 3.1268 2.33494 2.77822 2.53363 2.55115C2.7155 2.3433 2.97037 2.19047 3.55915 2.1C4.19188 2.00278 5.04408 2.00002 6.33334 2.00002L13.3902 2.00002C13.3534 2.10428 13.3333 2.21647 13.3333 2.33335L13.3333 8.13804C11.7943 8.57333 10.6667 9.98832 10.6667 11.6667C10.6667 13.3451 11.7943 14.76 13.3333 15.1953L13.3333 21C13.3333 21.1169 13.3534 21.2291 13.3902 21.3334L6.33334 21.3334C5.04408 21.3334 4.19187 21.3306 3.55915 21.2334C2.97037 21.1429 2.7155 20.9901 2.53363 20.7822C2.33494 20.5552 2.17798 20.2066 2.09078 19.4654C2.01063 18.784 2.00122 17.9004 2.00014 16.6667ZM26.5759 3.86803C26.656 4.54941 26.6655 5.43301 26.6665 6.66668H24.3333C23.0447 6.66668 22 7.71135 22 9.00002V14.3334C22 15.622 23.0447 16.6667 24.3333 16.6667H26.6665C26.6655 17.9004 26.656 18.784 26.5759 19.4654C26.4887 20.2066 26.3317 20.5552 26.133 20.7822C25.9512 20.9901 25.6963 21.1429 25.1075 21.2334C24.4748 21.3306 23.6226 21.3334 22.3333 21.3334L15.2764 21.3334C15.3133 21.2291 15.3333 21.1169 15.3333 21L15.3333 15.1953C16.8723 14.76 18 13.3451 18 11.6667C18 9.98832 16.8723 8.57333 15.3333 8.13804L15.3333 2.33335C15.3333 2.21647 15.3133 2.10428 15.2764 2.00002L22.3333 2.00002C23.6226 2.00002 24.4748 2.00278 25.1075 2.1C25.6963 2.19047 25.9512 2.3433 26.133 2.55115C26.3317 2.77822 26.4887 3.1268 26.5759 3.86803ZM24.3333 14.6667L26.6667 14.6667V8.66669L24.3333 8.66669C24.1492 8.66669 24 8.81592 24 9.00002V14.3334C24 14.5174 24.1492 14.6667 24.3333 14.6667ZM14.3333 10C13.4129 10 12.6667 10.7462 12.6667 11.6667C12.6667 12.5872 13.4129 13.3334 14.3333 13.3334C15.2538 13.3334 16 12.5872 16 11.6667C16 10.7462 15.2538 10 14.3333 10Z" fill="#2EAD00"/>
</svg>
