<svg width="22" height="22" viewBox="0 0 22 22" fill="none" xmlns="http://www.w3.org/2000/svg">
<path fill-rule="evenodd" clip-rule="evenodd" d="M7.25 8.25C7.25 6.317 8.817 4.75 10.75 4.75C12.683 4.75 14.25 6.317 14.25 8.25C14.25 10.183 12.683 11.75 10.75 11.75C8.817 11.75 7.25 10.183 7.25 8.25ZM10.75 6.25C9.64543 6.25 8.75 7.14543 8.75 8.25C8.75 9.35457 9.64543 10.25 10.75 10.25C11.8546 10.25 12.75 9.35457 12.75 8.25C12.75 7.14543 11.8546 6.25 10.75 6.25Z" fill="#777777"/>
<path fill-rule="evenodd" clip-rule="evenodd" d="M0 10.75C0 4.81294 4.81294 0 10.75 0C16.6871 0 21.5 4.81294 21.5 10.75C21.5 16.6871 16.6871 21.5 10.75 21.5C4.81294 21.5 0 16.6871 0 10.75ZM10.75 1.5C5.64137 1.5 1.5 5.64137 1.5 10.75C1.5 13.1215 2.39241 15.2845 3.85971 16.9216L4.15934 16.3972C5.18309 14.6056 7.08831 13.5 9.15174 13.5L12.3485 13.5C14.4119 13.5 16.3172 14.6056 17.3409 16.3972L17.6404 16.9214C19.1077 15.2843 20 13.1214 20 10.75C20 5.64137 15.8586 1.5 10.75 1.5ZM16.5185 17.9814L16.0385 17.1414C15.2819 15.8172 13.8737 15 12.3485 15L9.15174 15C7.6266 15 6.21839 15.8172 5.46171 17.1414L4.98164 17.9815C6.56325 19.2448 8.56843 20 10.75 20C12.9317 20 14.9369 19.2447 16.5185 17.9814Z" fill="#777777"/>
</svg>
