<svg width="22" height="22" viewBox="0 0 22 22" fill="none" xmlns="http://www.w3.org/2000/svg">
<path d="M7.25 8.25C7.25 6.317 8.817 4.75 10.75 4.75C12.683 4.75 14.25 6.317 14.25 8.25C14.25 10.183 12.683 11.75 10.75 11.75C8.817 11.75 7.25 10.183 7.25 8.25Z" fill="white"/>
<path fill-rule="evenodd" clip-rule="evenodd" d="M8.3122 21.2224C9.09545 21.404 9.91152 21.5 10.75 21.5C16.6871 21.5 21.5 16.6871 21.5 10.75C21.5 4.81294 16.6871 0 10.75 0C4.81294 0 0 4.81294 0 10.75C0 13.714 1.19959 16.3979 3.13976 18.3425C4.53703 19.7429 6.31824 20.7602 8.3122 21.2224ZM10.75 1.95455C5.8924 1.95455 1.95455 5.8924 1.95455 10.75C1.95455 12.9519 2.76368 14.9649 4.10084 16.5077L4.15873 16.3972C5.18247 14.6056 7.0877 13.5 9.15112 13.5L12.3479 13.5C14.4113 13.5 16.3166 14.6056 17.3403 16.3972L17.3985 16.5084C18.7361 14.9655 19.5455 12.9523 19.5455 10.75C19.5455 5.8924 15.6076 1.95455 10.75 1.95455Z" fill="white"/>
</svg>
