<svg width="20" height="22" viewBox="0 0 20 22" fill="none" xmlns="http://www.w3.org/2000/svg">
<path fill-rule="evenodd" clip-rule="evenodd" d="M15.0212 0.152422C13.8206 -2.20537e-05 12.2842 -1.22304e-05 10.3333 2.29532e-07L9.16672 2.29532e-07C7.21585 -1.24091e-05 5.67941 -2.25455e-05 4.47885 0.152421C3.24987 0.308473 2.25965 0.635751 1.47552 1.37631C0.685345 2.12259 0.330604 3.07468 0.162548 4.25521C-3.20375e-05 5.39729 -1.76822e-05 6.8554 3.91183e-07 8.69067L3.91183e-07 12.8093C-1.80399e-05 14.6446 -3.26782e-05 16.1027 0.162548 17.2448C0.330603 18.4253 0.685344 19.3774 1.47552 20.1237C2.25965 20.8642 3.24987 21.1915 4.47885 21.3476C5.67941 21.5 7.21586 21.5 9.16674 21.5H10.3333C12.2842 21.5 13.8206 21.5 15.0212 21.3476C16.2501 21.1915 17.2404 20.8643 18.0245 20.1237C18.8147 19.3774 19.1694 18.4253 19.3375 17.2448C19.5 16.1027 19.5 14.6446 19.5 12.8093V8.69074C19.5 6.85547 19.5 5.39729 19.3375 4.25521C19.1694 3.07468 18.8147 2.12259 18.0245 1.37631C17.2404 0.635752 16.2501 0.308474 15.0212 0.152422ZM5.75 4.75C5.19772 4.75 4.75 5.19772 4.75 5.75C4.75 6.30228 5.19772 6.75 5.75 6.75L13.75 6.75C14.3023 6.75 14.75 6.30228 14.75 5.75C14.75 5.19772 14.3023 4.75 13.75 4.75L5.75 4.75ZM4.75 10.75C4.75 10.1977 5.19772 9.75 5.75 9.75L13.75 9.75C14.3023 9.75 14.75 10.1977 14.75 10.75C14.75 11.3023 14.3023 11.75 13.75 11.75L5.75 11.75C5.19772 11.75 4.75 11.3023 4.75 10.75ZM5.75 14.75C5.19772 14.75 4.75 15.1977 4.75 15.75C4.75 16.3023 5.19772 16.75 5.75 16.75L9.75 16.75C10.3023 16.75 10.75 16.3023 10.75 15.75C10.75 15.1977 10.3023 14.75 9.75 14.75H5.75Z" fill="url(#paint0_linear_10573_102)"/>
<defs>
<linearGradient id="paint0_linear_10573_102" x1="-2.13393e-09" y1="10.75" x2="19.241" y2="10.8802" gradientUnits="userSpaceOnUse">
<stop offset="1" stop-color="#2EAD00"/>
</linearGradient>
</defs>
</svg>
