<svg width="22" height="22" viewBox="0 0 22 22" fill="none" xmlns="http://www.w3.org/2000/svg">
<path fill-rule="evenodd" clip-rule="evenodd" d="M10.9256 0.00656927C10.8087 -0.00218976 10.6913 -0.00218976 10.5744 0.00656927C10.0708 0.0443091 9.66271 0.271547 9.28981 0.563294C8.93908 0.837699 8.55108 1.22573 8.0973 1.67956L7.33657 2.33089C7.33657 2.33089 6.92864 2.38394 6.28268 2.38394C5.57147 2.3839 4.96358 2.38387 4.4778 2.44919C3.95911 2.51892 3.46886 2.67526 3.07206 3.07206C2.67526 3.46886 2.51892 3.95911 2.44919 4.4778C2.38387 4.96358 2.3839 5.57147 2.38394 6.28268L2.33089 7.33657L1.67956 8.0973C1.22576 8.55106 0.837689 8.93909 0.563294 9.28981C0.271547 9.66271 0.0443091 10.0708 0.00656927 10.5744C-0.00218976 10.6913 -0.00218976 10.8087 0.00656927 10.9256C0.0443091 11.4292 0.271547 11.8373 0.563294 12.2102C0.837699 12.5609 1.22573 12.9489 1.67956 13.4027L2.33089 14.1634L2.38394 15.2173C2.3839 15.9285 2.38387 16.5364 2.44919 17.0222C2.51892 17.5409 2.67526 18.0311 3.07206 18.4279C3.46886 18.8247 3.95911 18.9811 4.4778 19.0508C4.96358 19.1161 5.57148 19.1161 6.28269 19.1161L7.33657 19.1691L8.0973 19.8204C8.55104 20.2742 8.93911 20.6623 9.28981 20.9367C9.6627 21.2285 10.0708 21.4557 10.5744 21.4934C10.6913 21.5022 10.8087 21.5022 10.9256 21.4934C11.4292 21.4557 11.8373 21.2285 12.2102 20.9367C12.5609 20.6623 12.9489 20.2742 13.4027 19.8204L14.1634 19.1691L15.2173 19.1161C15.9285 19.1161 16.5364 19.1161 17.0222 19.0508C17.5409 18.9811 18.0311 18.8247 18.4279 18.4279C18.8247 18.0311 18.9811 17.5409 19.0508 17.0222C19.1161 16.5364 19.1161 15.9285 19.1161 15.2173L19.1691 14.1634L19.8205 13.4027C20.2743 12.9489 20.6623 12.5609 20.9367 12.2102C21.2285 11.8373 21.4557 11.4292 21.4934 10.9256C21.5022 10.8087 21.5022 10.6913 21.4934 10.5744C21.4557 10.0708 21.2285 9.66271 20.9367 9.28981C20.6623 8.93907 20.2742 8.55106 19.8204 8.09726L19.1691 7.33657L19.1161 6.28269C19.1161 5.57148 19.1161 4.96358 19.0508 4.4778C18.9811 3.95911 18.8247 3.46886 18.4279 3.07206C18.0311 2.67526 17.5409 2.51892 17.0222 2.44919C16.5364 2.38387 15.9285 2.3839 15.2173 2.38394C14.5714 2.38394 14.1047 2.30658 14.1047 2.30658L13.4027 1.67956C12.9489 1.22573 12.5609 0.8377 12.2102 0.563294C11.8373 0.271547 11.4292 0.0443091 10.9256 0.00656927ZM10.75 6.5C8.40279 6.5 6.5 8.40279 6.5 10.75C6.5 13.0972 8.40279 15 10.75 15C13.0972 15 15 13.0972 15 10.75C15 8.40279 13.0972 6.5 10.75 6.5Z" fill="#2EAD00"/>
</svg>
