<svg width="22" height="22" viewBox="0 0 22 22" fill="none" xmlns="http://www.w3.org/2000/svg">
<path fill-rule="evenodd" clip-rule="evenodd" d="M10.75 6.5C8.40279 6.5 6.5 8.40279 6.5 10.75C6.5 13.0972 8.40279 15 10.75 15C13.0972 15 15 13.0972 15 10.75C15 8.40279 13.0972 6.5 10.75 6.5ZM8 10.75C8 9.23122 9.23122 8 10.75 8C12.2688 8 13.5 9.23122 13.5 10.75C13.5 12.2688 12.2688 13.5 10.75 13.5C9.23122 13.5 8 12.2688 8 10.75Z" fill="#777777"/>
<path fill-rule="evenodd" clip-rule="evenodd" d="M10.9256 0.00656927C10.8087 -0.00218976 10.6913 -0.00218976 10.5744 0.00656927C10.0708 0.0443091 9.66271 0.271547 9.28981 0.563294C8.93908 0.837701 8.55107 1.22574 8.09729 1.67957L8.06552 1.71133C7.60876 2.1681 7.50539 2.25606 7.39525 2.30658C7.376 2.31542 7.35642 2.32352 7.33657 2.33089C7.22295 2.37305 7.08766 2.38394 6.44171 2.38394L6.28268 2.38394C5.57148 2.3839 4.96358 2.38387 4.4778 2.44919C3.95911 2.51892 3.46886 2.67526 3.07206 3.07206C2.67526 3.46886 2.51892 3.95911 2.44919 4.4778C2.38387 4.96358 2.3839 5.57147 2.38394 6.28268L2.38394 6.44171C2.38394 7.08766 2.37305 7.22295 2.33089 7.33657C2.32352 7.35642 2.31542 7.376 2.30658 7.39525C2.25606 7.50539 2.1681 7.60876 1.71133 8.06552L1.67957 8.09729C1.22574 8.55107 0.837701 8.93908 0.563294 9.28981C0.271547 9.66271 0.0443091 10.0708 0.00656927 10.5744C-0.00218976 10.6913 -0.00218976 10.8087 0.00656927 10.9256C0.0443091 11.4292 0.271547 11.8373 0.563294 12.2102C0.837702 12.5609 1.22574 12.9489 1.67957 13.4027L1.71133 13.4345C2.1681 13.8912 2.25606 13.9946 2.30658 14.1047C2.31542 14.124 2.32352 14.1436 2.33089 14.1634C2.37305 14.277 2.38394 14.4123 2.38394 15.0583L2.38394 15.2173C2.3839 15.9285 2.38387 16.5364 2.44919 17.0222C2.51892 17.5409 2.67526 18.0311 3.07206 18.4279C3.46886 18.8247 3.95911 18.9811 4.4778 19.0508C4.96358 19.1161 5.57148 19.1161 6.28269 19.1161H6.44171C7.08766 19.1161 7.22295 19.127 7.33657 19.1691C7.35643 19.1765 7.376 19.1846 7.39525 19.1934C7.5054 19.2439 7.60876 19.3319 8.06552 19.7887L8.09732 19.8205C8.55109 20.2743 8.93908 20.6623 9.28981 20.9367C9.6627 21.2285 10.0708 21.4557 10.5744 21.4934C10.6913 21.5022 10.8087 21.5022 10.9256 21.4934C11.4292 21.4557 11.8373 21.2285 12.2102 20.9367C12.5609 20.6623 12.9489 20.2743 13.4027 19.8204L13.4345 19.7887C13.8912 19.3319 13.9946 19.2439 14.1047 19.1934C14.124 19.1846 14.1436 19.1765 14.1634 19.1691C14.277 19.127 14.4123 19.1161 15.0583 19.1161H15.2173C15.9285 19.1161 16.5364 19.1161 17.0222 19.0508C17.5409 18.9811 18.0311 18.8247 18.4279 18.4279C18.8247 18.0311 18.9811 17.5409 19.0508 17.0222C19.1161 16.5364 19.1161 15.9285 19.1161 15.2173V15.0583C19.1161 14.4123 19.127 14.277 19.1691 14.1634C19.1765 14.1436 19.1846 14.124 19.1934 14.1047C19.2439 13.9946 19.3319 13.8912 19.7887 13.4345L19.8204 13.4027C20.2743 12.9489 20.6623 12.5609 20.9367 12.2102C21.2285 11.8373 21.4557 11.4292 21.4934 10.9256C21.5022 10.8087 21.5022 10.6913 21.4934 10.5744C21.4557 10.0708 21.2285 9.66271 20.9367 9.28981C20.6623 8.93909 20.2743 8.5511 19.8205 8.09733L19.7887 8.06552C19.3319 7.60876 19.2439 7.50539 19.1934 7.39525C19.1846 7.376 19.1765 7.35643 19.1691 7.33657C19.127 7.22295 19.1161 7.08766 19.1161 6.44171V6.28269C19.1161 5.57148 19.1161 4.96358 19.0508 4.4778C18.9811 3.95911 18.8247 3.46886 18.4279 3.07206C18.0311 2.67526 17.5409 2.51892 17.0222 2.44919C16.5364 2.38387 15.9285 2.3839 15.2173 2.38394L15.0583 2.38394C14.4123 2.38394 14.277 2.37305 14.1634 2.33089C14.1436 2.32352 14.124 2.31542 14.1047 2.30658C13.9946 2.25606 13.8912 2.1681 13.4345 1.71133L13.4027 1.67957C12.9489 1.22574 12.5609 0.837702 12.2102 0.563294C11.8373 0.271547 11.4292 0.0443091 10.9256 0.00656927ZM10.6865 1.50238C10.7288 1.49921 10.7712 1.49921 10.8135 1.50238C10.9016 1.50898 11.0299 1.54439 11.2859 1.74468C11.5559 1.95593 11.8794 2.27758 12.3738 2.772L12.4428 2.84108C12.7918 3.19097 13.0927 3.49261 13.4793 3.66997C13.5326 3.6944 13.5867 3.71683 13.6416 3.73721C14.0404 3.88518 14.4665 3.88464 14.9607 3.88402L15.1673 3.88394C15.9425 3.88394 16.4484 3.88553 16.8223 3.93581C17.1747 3.98318 17.2956 4.06107 17.3673 4.13272C17.4389 4.20436 17.5168 4.32531 17.5642 4.67768C17.6145 5.05162 17.6161 5.55753 17.6161 6.33269L17.616 6.53933C17.6154 7.03352 17.6148 7.45957 17.7628 7.85837C17.7832 7.91329 17.8056 7.96744 17.83 8.02069C18.0074 8.40732 18.309 8.7082 18.6589 9.0572L18.728 9.12618C19.2224 9.62059 19.5441 9.9441 19.7553 10.2141C19.9556 10.4701 19.991 10.5983 19.9976 10.6865C20.0008 10.7288 20.0008 10.7712 19.9976 10.8135C19.991 10.9016 19.9556 11.0299 19.7553 11.2859C19.5441 11.5559 19.2224 11.8794 18.728 12.3738L18.6589 12.4428C18.309 12.7918 18.0074 13.0927 17.83 13.4793C17.8056 13.5326 17.7832 13.5867 17.7628 13.6416C17.6148 14.0404 17.6154 14.4665 17.616 14.9607L17.6161 15.1673C17.6161 15.9425 17.6145 16.4484 17.5642 16.8223C17.5168 17.1747 17.4389 17.2956 17.3673 17.3673C17.2956 17.4389 17.1747 17.5168 16.8223 17.5642C16.4484 17.6145 15.9425 17.6161 15.1673 17.6161L14.9607 17.616C14.4665 17.6154 14.0404 17.6148 13.6416 17.7628C13.5867 17.7832 13.5326 17.8056 13.4793 17.83C13.0927 18.0074 12.7918 18.309 12.4428 18.6589L12.3738 18.728C11.8794 19.2224 11.5559 19.5441 11.2859 19.7553C11.0299 19.9556 10.9016 19.991 10.8135 19.9976C10.7712 20.0008 10.7288 20.0008 10.6865 19.9976C10.5984 19.991 10.4701 19.9556 10.2141 19.7553C9.9441 19.5441 9.62059 19.2224 9.12618 18.728L9.05721 18.6589C8.7082 18.309 8.40732 18.0074 8.02069 17.83C7.96744 17.8056 7.91329 17.7832 7.85837 17.7628C7.45957 17.6148 7.03352 17.6154 6.53933 17.616L6.33269 17.6161C5.55753 17.6161 5.05162 17.6145 4.67768 17.5642C4.32531 17.5168 4.20436 17.4389 4.13272 17.3673C4.06107 17.2956 3.98318 17.1747 3.93581 16.8223C3.88553 16.4484 3.88394 15.9425 3.88394 15.1673L3.88402 14.9607C3.88464 14.4665 3.88518 14.0404 3.73721 13.6416C3.71683 13.5867 3.6944 13.5326 3.66997 13.4793C3.49261 13.0927 3.19097 12.7918 2.84108 12.4428L2.772 12.3738C2.27758 11.8794 1.95593 11.5559 1.74468 11.2859C1.54439 11.0299 1.50898 10.9016 1.50238 10.8135C1.49921 10.7712 1.49921 10.7288 1.50238 10.6865C1.50898 10.5983 1.54439 10.4701 1.74468 10.2141C1.95593 9.9441 2.27758 9.62059 2.772 9.12618L2.84109 9.05721C3.19097 8.7082 3.49261 8.40732 3.66997 8.02069C3.6944 7.96744 3.71683 7.9133 3.73721 7.85837C3.88518 7.45957 3.88464 7.03353 3.88402 6.53933L3.88394 6.33269C3.88394 5.55753 3.88553 5.05162 3.93581 4.67768C3.98318 4.32531 4.06107 4.20436 4.13272 4.13272C4.20436 4.06107 4.32531 3.98318 4.67768 3.93581C5.05162 3.88553 5.55753 3.88394 6.33269 3.88394L6.53933 3.88402C7.03353 3.88464 7.45957 3.88518 7.85837 3.73721C7.9133 3.71683 7.96744 3.6944 8.02069 3.66997C8.40732 3.49261 8.7082 3.19097 9.05721 2.84109L9.12618 2.77199C9.62059 2.27758 9.9441 1.95593 10.2141 1.74468C10.4701 1.54439 10.5983 1.50898 10.6865 1.50238Z" fill="#777777"/>
</svg>
