<svg width="22" height="18" viewBox="0 0 22 18" fill="none" xmlns="http://www.w3.org/2000/svg">
<path d="M10 0.400006C10 0.211444 10 0.117163 9.94141 0.0585841C9.8828 6.0983e-06 9.78861 6.11449e-06 9.60001 6.11449e-06L4.69218 1.49681e-06C3.79882 -3.58965e-05 3.0433 -6.75172e-05 2.44156 0.0923911C1.7939 0.191908 1.22075 0.41202 0.771366 0.925601C0.334589 1.42477 0.159415 2.03682 0.0783671 2.72576C0.0177031 3.24143 0.00399205 3.86389 0.000901047 4.59969C0.000110047 4.78806 -0.000284959 4.88225 0.058344 4.94113C0.116973 5 0.211416 5 0.400302 5L3.25001 5C4.21651 5 5.00001 5.7835 5.00001 6.75L5.00001 10.75C5.00001 11.7165 4.21651 12.5 3.25001 12.5H0.400302C0.211416 12.5 0.116973 12.5 0.058344 12.5589C-0.000284959 12.6178 0.000110047 12.7119 0.000901047 12.9003C0.00399205 13.6361 0.0177031 14.2586 0.0783671 14.7743C0.159415 15.4632 0.334589 16.0752 0.771366 16.5744C1.22075 17.088 1.7939 17.3081 2.44156 17.4076C3.04333 17.5001 3.79876 17.5001 4.69216 17.5L9.60001 17.5C9.78861 17.5 9.8828 17.5 9.94141 17.4414C10 17.3829 10 17.2886 10 17.1V11.699C10 11.5584 10 11.4881 9.96601 11.4375C9.93191 11.3869 9.85931 11.3573 9.71397 11.2982C8.70868 10.889 8.00001 9.9023 8.00001 8.75C8.00001 7.59773 8.70868 6.61098 9.71397 6.20184C9.85931 6.14271 9.93191 6.11314 9.96601 6.06252C10 6.0119 10 5.94159 10 5.80096L10 0.400006Z" fill="white"/>
<path d="M0 10.6C0 10.7886 0 10.8828 0.058579 10.9414C0.117157 11 0.211438 11 0.4 11H3.25C3.38807 11 3.5 10.8881 3.5 10.75L3.5 6.75C3.5 6.61193 3.38807 6.5 3.25 6.5L0.4 6.5C0.211438 6.5 0.117157 6.5 0.058579 6.55858C0 6.61716 0 6.71144 0 6.9L0 10.6Z" fill="white"/>
<path d="M11.5586 17.4414C11.5 17.3829 11.5 17.2886 11.5 17.1V11.699C11.5 11.5584 11.5 11.4881 11.534 11.4375C11.5681 11.3869 11.6407 11.3573 11.786 11.2982C12.7913 10.889 13.5 9.9023 13.5 8.75C13.5 7.59773 12.7913 6.61098 11.786 6.20184C11.6407 6.14271 11.5681 6.11314 11.534 6.06252C11.5 6.0119 11.5 5.94159 11.5 5.80096L11.5 0.400005C11.5 0.211443 11.5 0.117162 11.5586 0.0585841C11.6172 5.0962e-06 11.7114 5.10121e-06 11.9 5.10121e-06L16.8079 1.49681e-06C17.7013 -3.58965e-05 18.4567 -6.75097e-05 19.0584 0.0923911C19.7061 0.191908 20.2793 0.41202 20.7286 0.925601C21.1654 1.42477 21.3406 2.03682 21.4216 2.72576C21.4823 3.24143 21.496 3.86389 21.4991 4.59969C21.4999 4.78806 21.5003 4.88225 21.4417 4.94113C21.383 5 21.2886 5 21.0997 5L18.25 5C17.2835 5 16.5 5.7835 16.5 6.75L16.5 10.75C16.5 11.7165 17.2835 12.5 18.25 12.5H21.0997C21.2886 12.5 21.383 12.5 21.4417 12.5589C21.5003 12.6178 21.4999 12.7119 21.4991 12.9003C21.496 13.6361 21.4823 14.2586 21.4216 14.7743C21.3406 15.4632 21.1654 16.0752 20.7286 16.5744C20.2793 17.088 19.7061 17.3081 19.0584 17.4076C18.4567 17.5001 17.7013 17.5001 16.8079 17.5H11.9C11.7114 17.5 11.6172 17.5 11.5586 17.4414Z" fill="white"/>
<path d="M18.25 6.5L21.1 6.5C21.2886 6.5 21.3828 6.5 21.4414 6.55858C21.5 6.61716 21.5 6.71144 21.5 6.9L21.5 10.6C21.5 10.7886 21.5 10.8828 21.4414 10.9414C21.3828 11 21.2886 11 21.1 11H18.25C18.1119 11 18 10.8881 18 10.75L18 6.75C18 6.61193 18.1119 6.5 18.25 6.5Z" fill="white"/>
<path d="M10.75 7.5C10.0596 7.5 9.5 8.05965 9.5 8.75C9.5 9.44036 10.0596 10 10.75 10C11.4404 10 12 9.44036 12 8.75C12 8.05965 11.4404 7.5 10.75 7.5Z" fill="white"/>
</svg>
