<svg width="22" height="18" viewBox="0 0 22 18" fill="none" xmlns="http://www.w3.org/2000/svg">
<path fill-rule="evenodd" clip-rule="evenodd" d="M4.69217 1.70192e-06L16.8078 1.70192e-06C17.7012 -3.90403e-05 18.4567 -7.34925e-05 19.0584 0.0923888C19.7061 0.191905 20.2793 0.412017 20.7286 0.925597C21.1654 1.42477 21.3406 2.03682 21.4216 2.72576C21.5 3.39214 21.5 4.23683 21.5 5.27402L21.5 12.226C21.5 13.2632 21.5 14.1079 21.4216 14.7743C21.3406 15.4632 21.1654 16.0752 20.7286 16.5744C20.2793 17.088 19.7061 17.3081 19.0584 17.4076C18.4567 17.5001 17.7013 17.5 16.8079 17.5L4.69215 17.5C3.79875 17.5 3.04332 17.5001 2.44155 17.4076C1.79389 17.3081 1.22074 17.088 0.771356 16.5744C0.334583 16.0752 0.159409 15.4632 0.0783614 14.7743C-3.11509e-05 14.1079 -1.69387e-05 13.2632 5.18839e-07 12.226L5.18839e-07 5.274C-1.69387e-05 4.23684 -3.11583e-05 3.39213 0.0783614 2.72576C0.159409 2.03682 0.334583 1.42477 0.771356 0.925597C1.22074 0.412017 1.79389 0.191905 2.44155 0.0923888C3.04331 -7.34925e-05 3.79878 -3.90403e-05 4.69217 1.70192e-06ZM1.5 6.5L1.5 11H3.25C3.38807 11 3.5 10.8881 3.5 10.75L3.5 6.75C3.5 6.61193 3.38807 6.5 3.25 6.5L1.5 6.5ZM1.50011 12.5H3.25C4.2165 12.5 5 11.7165 5 10.75L5 6.75C5 5.7835 4.2165 5 3.25 5L1.50011 5C1.50092 4.07475 1.50797 3.41204 1.56809 2.90101C1.63349 2.34509 1.75121 2.08366 1.90022 1.91335C2.03662 1.75746 2.22777 1.64284 2.66936 1.57499C3.14391 1.50207 3.78306 1.50001 4.75 1.50001L10.0427 1.50001C10.015 1.5782 10 1.66234 10 1.75L10 6.10352C8.84575 6.42998 8 7.49122 8 8.75C8 10.0088 8.84575 11.07 10 11.3965V15.75C10 15.8377 10.015 15.9218 10.0427 16L4.75 16C3.78306 16 3.14391 15.9979 2.66936 15.925C2.22777 15.8572 2.03662 15.7425 1.90022 15.5867C1.75121 15.4164 1.63349 15.1549 1.56809 14.599C1.50797 14.088 1.50092 13.4253 1.50011 12.5ZM19.9319 2.90101C19.992 3.41204 19.9991 4.07475 19.9999 5L18.25 5C17.2835 5 16.5 5.7835 16.5 6.75L16.5 10.75C16.5 11.7165 17.2835 12.5 18.25 12.5H19.9999C19.9991 13.4253 19.992 14.088 19.9319 14.599C19.8665 15.1549 19.7488 15.4164 19.5998 15.5867C19.4634 15.7425 19.2722 15.8572 18.8306 15.925C18.3561 15.9979 17.7169 16 16.75 16H11.4573C11.485 15.9218 11.5 15.8377 11.5 15.75V11.3965C12.6543 11.07 13.5 10.0088 13.5 8.75C13.5 7.49122 12.6543 6.42998 11.5 6.10352L11.5 1.75C11.5 1.66234 11.485 1.5782 11.4573 1.50001L16.75 1.50001C17.7169 1.50001 18.3561 1.50207 18.8306 1.57499C19.2722 1.64284 19.4634 1.75746 19.5998 1.91335C19.7488 2.08366 19.8665 2.34509 19.9319 2.90101ZM18.25 11H20L20 6.5L18.25 6.5C18.1119 6.5 18 6.61193 18 6.75L18 10.75C18 10.8881 18.1119 11 18.25 11ZM10.75 7.5C10.0596 7.5 9.5 8.05965 9.5 8.75C9.5 9.44036 10.0596 10 10.75 10C11.4404 10 12 9.44036 12 8.75C12 8.05965 11.4404 7.5 10.75 7.5Z" fill="#777777"/>
</svg>
