<svg width="29" height="29" viewBox="0 0 29 29" fill="none" xmlns="http://www.w3.org/2000/svg">
<path d="M15.1677 1.70628C15.557 1.31561 15.557 0.683667 15.1677 0.293C14.777 -0.0976667 14.1437 -0.0976667 13.753 0.293L5.62633 8.41963C5.23567 8.8103 5.23567 9.44361 5.62633 9.83428C6.017 10.2236 6.64901 10.2236 7.03968 9.83428L7.25166 9.6223C7.57299 10.033 7.99169 10.561 8.47969 11.157C9.63169 12.565 11.1797 14.3717 12.737 15.929C14.2943 17.4863 16.101 19.0343 17.509 20.1863C18.105 20.6743 18.633 21.093 19.0437 21.4143L18.8317 21.6263C18.4423 22.017 18.4423 22.6489 18.8317 23.0396C19.2223 23.4303 19.8557 23.4303 20.2464 23.0396L28.373 14.913C28.7637 14.5223 28.7637 13.889 28.373 13.4983C27.9823 13.109 27.3503 13.109 26.9597 13.4983L26.7477 13.7103C26.4264 13.2997 26.0077 12.7716 25.5197 12.1756C24.3677 10.7676 22.8197 8.96095 21.2623 7.40361C19.705 5.84628 17.8983 4.29832 16.4903 3.14632C15.8943 2.65832 15.3663 2.23966 14.9557 1.91833L15.1677 1.70628Z" fill="#2EAD00"/>
<path d="M9.7355 15.6753L9.73829 15.6783C10.2543 16.2423 10.7863 16.805 11.3223 17.341C11.8583 17.877 12.4209 18.409 12.9849 18.925L12.9881 18.9279C13.2593 19.1766 13.3957 19.3017 13.4063 19.4624C13.4156 19.6237 13.2969 19.7637 13.0583 20.0437L6.88628 27.289C5.40628 29.0263 2.7583 29.133 1.14497 27.5183C-0.468366 25.905 -0.363036 23.2583 1.3743 21.7783L8.61961 15.605C8.89961 15.3663 9.03962 15.2477 9.20096 15.257C9.36169 15.2676 9.4867 15.404 9.7355 15.6753Z" fill="#2EAD00"/>
</svg>
