<svg width="22" height="22" viewBox="0 0 22 22" fill="none" xmlns="http://www.w3.org/2000/svg">
<path fill-rule="evenodd" clip-rule="evenodd" d="M14.1247 17.2807C14.2707 17.4277 14.4628 17.5008 14.6548 17.5008H14.6558C14.8478 17.5008 15.0397 17.4267 15.1857 17.2807L21.2808 11.1858C21.5738 10.8928 21.5738 10.4178 21.2808 10.1248C20.9878 9.83178 20.5127 9.83178 20.2197 10.1248L20.0617 10.2827C19.2487 9.24274 17.6107 7.21576 15.9477 5.55276C14.2847 3.89076 12.2578 2.25274 11.2178 1.43874L11.3758 1.28074C11.6687 0.987736 11.6687 0.51275 11.3758 0.21975C11.0828 -0.07325 10.6078 -0.07325 10.3148 0.21975L4.21975 6.31477C3.92675 6.60777 3.92675 7.08276 4.21975 7.37576C4.51275 7.66876 4.98775 7.66876 5.28075 7.37576L5.43875 7.21775C6.00248 7.93888 6.96288 9.13459 8.05323 10.3544L1.03137 16.3357C0.410374 16.8647 0.0353762 17.6357 0.00237622 18.4507C-0.0306238 19.2657 0.281376 20.0647 0.858376 20.6417C1.40838 21.1917 2.15838 21.5007 2.93338 21.5007L2.93438 21.5027C2.97338 21.5027 3.01137 21.5027 3.05037 21.5007C3.86537 21.4677 4.63638 21.0927 5.16538 20.4717L11.1479 13.4483C12.3671 14.5377 13.562 15.4976 14.2827 16.0617L14.1247 16.2197C13.8317 16.5128 13.8317 16.9877 14.1247 17.2807ZM10.0451 12.4294C9.87836 12.2695 9.71385 12.1088 9.55275 11.9478C9.39217 11.7872 9.23183 11.6232 9.07243 11.4571L2.00437 17.4777C1.69637 17.7397 1.51838 18.1067 1.50238 18.5107C1.48638 18.9147 1.63438 19.2947 1.92038 19.5817C2.20638 19.8677 2.58638 20.0157 2.99038 20.0007C3.39438 19.9847 3.76137 19.8057 4.02337 19.4987L10.0451 12.4294ZM10.6138 10.8878C8.94475 9.21877 7.25475 7.10775 6.50775 6.14875L10.1477 2.50876C11.1067 3.25476 13.2177 4.94574 14.8867 6.61374C16.5557 8.28274 18.2458 10.3938 18.9928 11.3528L15.3528 14.9927C14.3938 14.2467 12.2828 12.5558 10.6138 10.8878Z" fill="#777777"/>
</svg>
